<svg width="1438" height="181" fill="none" xmlns="http://www.w3.org/2000/svg"><path d="M111.176 1.92v129.953h-8.263V9.433H8.266v122.44H.003V1.92h111.173zm167.741 0v129.953h-8.013V96.317c-4.84 11.351-12.269 20.282-22.284 26.792-9.849 6.343-21.116 9.515-33.803 9.515-11.852 0-22.618-2.755-32.3-8.263-9.682-5.676-17.36-13.521-23.036-23.537-5.508-10.015-8.263-21.366-8.263-34.053 0-12.686 2.755-24.037 8.263-34.053 5.676-10.015 13.354-17.777 23.036-23.286 9.682-5.675 20.448-8.513 32.3-8.513 12.52 0 23.704 3.172 33.552 9.515 10.016 6.343 17.444 15.107 22.285 26.29V1.92h8.263zm-63.849 123.192c10.516 0 19.947-2.42 28.294-7.261 8.513-5.008 15.19-11.935 20.031-20.783 4.841-8.847 7.261-18.946 7.261-30.297 0-11.35-2.42-21.366-7.261-30.046-4.841-8.848-11.518-15.692-20.031-20.532-8.347-5.008-17.778-7.512-28.294-7.512-10.517 0-20.032 2.504-28.545 7.512-8.346 4.84-14.94 11.684-19.781 20.532-4.84 8.68-7.261 18.695-7.261 30.046 0 11.351 2.421 21.45 7.261 30.297 4.841 8.848 11.435 15.775 19.781 20.783 8.513 4.841 18.028 7.261 28.545 7.261zM390.303.919c12.186 0 23.119 2.838 32.801 8.513 9.849 5.676 17.444 13.521 22.785 23.537 5.509 10.015 8.263 21.366 8.263 34.053 0 12.52-2.754 23.787-8.263 33.802-5.341 10.016-12.853 17.861-22.535 23.537-9.515 5.508-20.365 8.263-32.55 8.263-12.687 0-23.871-3.005-33.553-9.014-9.514-6.177-16.692-14.857-21.533-26.04v82.878h-8.513V67.022c0-12.687 2.671-24.038 8.012-34.053 5.509-10.016 13.02-17.861 22.535-23.537C367.267 3.757 378.117.92 390.303.92zm0 124.193c10.683 0 20.198-2.42 28.544-7.261 8.514-5.008 15.107-11.935 19.781-20.783 4.841-8.847 7.261-18.862 7.261-30.046 0-11.184-2.42-21.2-7.261-30.047-4.674-8.847-11.267-15.774-19.781-20.782-8.346-5.008-17.861-7.512-28.544-7.512s-20.198 2.504-28.544 7.512c-8.18 4.84-14.607 11.684-19.28 20.532-4.674 8.68-7.011 18.695-7.011 30.046 0 11.351 2.337 21.45 7.011 30.297 4.673 8.848 11.1 15.775 19.28 20.783 8.346 4.841 17.861 7.261 28.544 7.261zM608.717 1.92v129.953h-8.013V96.317c-4.841 11.351-12.269 20.282-22.284 26.792-9.849 6.343-21.117 9.515-33.803 9.515-11.852 0-22.618-2.755-32.3-8.263-9.682-5.676-17.361-13.521-23.036-23.537-5.509-10.015-8.263-21.366-8.263-34.053 0-12.686 2.754-24.037 8.263-34.053 5.675-10.015 13.354-17.777 23.036-23.286 9.682-5.675 20.448-8.513 32.3-8.513 12.52 0 23.704 3.172 33.552 9.515 10.016 6.343 17.444 15.107 22.285 26.29V1.92h8.263zm-63.85 123.192c10.517 0 19.948-2.42 28.294-7.261 8.514-5.008 15.191-11.935 20.032-20.783 4.84-8.847 7.261-18.946 7.261-30.297 0-11.35-2.421-21.366-7.261-30.046-4.841-8.848-11.518-15.692-20.032-20.532-8.346-5.008-17.777-7.512-28.294-7.512-10.516 0-20.031 2.504-28.544 7.512-8.346 4.84-14.94 11.684-19.781 20.532-4.841 8.68-7.261 18.695-7.261 30.046 0 11.351 2.42 21.45 7.261 30.297 4.841 8.848 11.435 15.775 19.781 20.783 8.513 4.841 18.028 7.261 28.544 7.261zM801.98 1.92v129.953h-7.762V16.193l-59.593 98.152h-4.006l-59.092-97.401v114.929h-8.012V1.92h7.762l61.596 102.41L794.468 1.92h7.512zm105.739 130.704c-12.019 0-22.953-2.755-32.801-8.263-9.682-5.676-17.277-13.521-22.786-23.537-5.508-10.015-8.263-21.366-8.263-34.053 0-12.686 2.755-24.037 8.263-34.053 5.509-10.015 13.104-17.777 22.786-23.286C884.766 3.757 895.7.92 907.719.92c12.185 0 23.119 2.838 32.801 8.513 9.681 5.509 17.277 13.27 22.785 23.286 5.509 10.016 8.263 21.367 8.263 34.053 0 12.687-2.754 24.038-8.263 34.053-5.508 10.016-13.104 17.861-22.785 23.537-9.682 5.508-20.616 8.263-32.801 8.263zm0-7.512c10.516 0 19.947-2.42 28.294-7.261 8.513-5.008 15.19-11.935 20.031-20.783 4.841-8.847 7.261-18.946 7.261-30.297 0-11.35-2.42-21.366-7.261-30.046-4.841-8.848-11.518-15.692-20.031-20.532-8.347-5.008-17.778-7.512-28.294-7.512-10.517 0-20.031 2.504-28.545 7.512-8.346 4.84-14.94 11.684-19.78 20.532-4.841 8.68-7.262 18.695-7.262 30.046 0 11.351 2.421 21.45 7.262 30.297 4.84 8.848 11.434 15.775 19.78 20.783 8.514 4.841 18.028 7.261 28.545 7.261zM1013.61 1.92h8.26v60.845h93.65V1.92h8.26v129.953h-8.26V70.026h-93.65v61.847h-8.26V1.92zm215.84 130.704c-12.02 0-22.95-2.755-32.8-8.263-9.68-5.676-17.28-13.521-22.79-23.537-5.51-10.015-8.26-21.366-8.26-34.053 0-12.686 2.75-24.037 8.26-34.053 5.51-10.015 13.11-17.777 22.79-23.286 9.85-5.675 20.78-8.513 32.8-8.513 12.19 0 23.12 2.838 32.8 8.513 9.68 5.509 17.28 13.27 22.79 23.286 5.5 10.016 8.26 21.367 8.26 34.053 0 12.687-2.76 24.038-8.26 34.053-5.51 10.016-13.11 17.861-22.79 23.537-9.68 5.508-20.61 8.263-32.8 8.263zm0-7.512c10.52 0 19.95-2.42 28.29-7.261 8.52-5.008 15.19-11.935 20.03-20.783 4.85-8.847 7.27-18.946 7.27-30.297 0-11.35-2.42-21.366-7.27-30.046-4.84-8.848-11.51-15.692-20.03-20.532-8.34-5.008-17.77-7.512-28.29-7.512s-20.03 2.504-28.54 7.512c-8.35 4.84-14.94 11.684-19.79 20.532-4.84 8.68-7.26 18.695-7.26 30.046 0 11.351 2.42 21.45 7.26 30.297 4.85 8.848 11.44 15.775 19.79 20.783 8.51 4.841 18.02 7.261 28.54 7.261zm178.75-60.093c19.87 3.171 29.8 13.938 29.8 32.3 0 11.351-4.09 19.947-12.27 25.79-8.01 5.842-20.2 8.764-36.56 8.764h-53.83V1.92h52.58c14.19 0 25.29 2.838 33.3 8.514 8.02 5.675 12.02 13.855 12.02 24.538 0 7.845-2.25 14.355-6.76 19.53-4.34 5.008-10.43 8.514-18.28 10.517zm-64.6-2.504h44.32c11.85 0 20.95-2.254 27.29-6.76 6.51-4.508 9.77-11.185 9.77-20.032s-3.26-15.524-9.77-20.031c-6.34-4.507-15.44-6.76-27.29-6.76h-44.32v53.583zm45.82 62.347c13.36 0 23.37-2.254 30.05-6.761 6.85-4.507 10.27-11.518 10.27-21.033 0-9.514-3.09-16.525-9.27-21.032-6.01-4.507-15.52-6.76-28.54-6.76h-48.33v55.586h45.82z" fill="#fff"/></svg>