<svg width="74" height="74" fill="none" xmlns="http://www.w3.org/2000/svg"><path d="M73.807 49.12V27.946H59.69v2.352h-3.252l-2.967-1.483a8.24 8.24 0 00-.892-.381c.034-.158.053-.32.053-.489v-2.352a2.355 2.355 0 00-2.353-2.353v-7.058h1.176a3.534 3.534 0 003.53-3.529h1.176a3.534 3.534 0 003.529-3.529V6.771a3.534 3.534 0 00-3.53-3.529h-1.39A3.526 3.526 0 0051.456.89H27.93a3.523 3.523 0 00-3.313 2.352H3.227A2.355 2.355 0 00.873 5.595v2.353A2.355 2.355 0 003.226 10.3h21.391a3.524 3.524 0 003.313 2.353h1.176c3.35 0 6.663 1.057 9.41 2.969v7.618a2.355 2.355 0 00-2.352 2.353v2.352c0 .072.015.14.021.211a3.52 3.52 0 00-2.374 3.319c0 .906.354 1.726.918 2.352a3.5 3.5 0 00-.918 2.353c0 .907.354 1.726.918 2.352a3.501 3.501 0 00-.918 2.353c0 .907.354 1.727.918 2.353a3.501 3.501 0 00-.918 2.353 3.528 3.528 0 003.44 3.52l-2.42 3.025a4.683 4.683 0 00-1.02 2.911c0 2.177 1.509 3.996 3.53 4.505v1.331a3.534 3.534 0 003.528 3.529v1.176c0 .65-.527 1.177-1.176 1.177H20.872a3.534 3.534 0 00-3.53 3.529 3.534 3.534 0 003.53 3.529H63.22V71.47H20.872a1.177 1.177 0 010-2.353h18.821a3.534 3.534 0 003.529-3.529v-1.176a3.534 3.534 0 003.529-3.529v-1.332c2.02-.508 3.529-2.327 3.529-4.504v-5.956a8.275 8.275 0 003.192-.84l2.967-1.484h3.252v2.353h14.116zM62.043 30.298h2.353v2.353h2.353v-2.353h4.705v16.469H66.75V35.003h-2.353v11.764h-2.353V30.298zm-11.76-2.352h-2.356v-2.353h2.353l.002 2.352zm-7.105 12.736c.014.07.044.131.044.203 0 .65-.527 1.177-1.176 1.177H37.34a1.177 1.177 0 010-2.353h2.094a3.511 3.511 0 002.612 1.176c.398 0 .775-.08 1.132-.203zm-7.014-4.502c0-.65.527-1.176 1.176-1.176h1.177v2.352H37.34a1.177 1.177 0 01-1.176-1.176zm7.058-10.587h2.353v2.352h-2.353v-2.352zM57.338 6.77v2.353c0 .65-.527 1.176-1.176 1.176h-1.177V5.595h1.177c.649 0 1.176.527 1.176 1.176zm-4.705-2.35v8.234c0 .65-.528 1.176-1.177 1.176H40.078a18.931 18.931 0 00-6.267-2.915V3.242h17.645c.65 0 1.177.528 1.177 1.177zM27.93 3.242h3.529v2.353h-4.706V4.419c0-.65.527-1.177 1.177-1.177zM3.226 5.595h21.175v2.353H3.226V5.595zM27.93 10.3c-.65 0-1.177-.527-1.177-1.176V7.948h4.706v2.516a18.722 18.722 0 00-2.353-.164H27.93zm12.94 5.882h7.057v7.058H40.87v-7.058zm-2.353 9.41h2.352v2.354h-2.352v-2.353zm-1.177 4.706h1.393a3.48 3.48 0 00-.216 1.177v1.176H37.34a1.177 1.177 0 010-2.353zm-1.176 15.293c0-.65.527-1.177 1.176-1.177h4.706a1.177 1.177 0 010 2.353H37.34a1.177 1.177 0 01-1.176-1.176zm7.058 16.468h-2.353a1.177 1.177 0 01-1.176-1.176v-1.176h4.705v1.176c0 .649-.527 1.176-1.176 1.176zm2.399-4.705h-7.15a2.31 2.31 0 01-1.801-3.75l3.589-4.484h1.787a3.534 3.534 0 003.529-3.53c0-.906-.354-1.726-.918-2.352a3.501 3.501 0 00.918-2.353c0-.628-.185-1.228-.493-1.76a3.502 3.502 0 00.493-1.769v-2.352h1.885c.15.133.31.256.467.38v19.663a2.31 2.31 0 01-2.306 2.307zm10.263-12.94l-3.463 1.732a5.888 5.888 0 01-2.14.593V36.727c1.054.41 2.185.63 3.326.63h.202v-2.353h-.202a6.903 6.903 0 01-4.848-2.009l-.345-.344h-5.192v4.705a1.177 1.177 0 01-2.353 0v-5.882c0-.649.528-1.176 1.177-1.176h7.745c.908 0 1.817.216 2.629.621l3.464 1.732h3.807v11.763h-3.807z" fill="#fff"/></svg>