<svg width="54" height="54" fill="none" xmlns="http://www.w3.org/2000/svg"><path d="M47.25 9.809c.583 0 1.055-.473 1.055-1.055v-5.59A3.168 3.168 0 0045.141 0H3.165A3.168 3.168 0 000 3.164v47.672A3.168 3.168 0 003.165 54H45.14a3.168 3.168 0 003.164-3.164v-2.953a1.055 1.055 0 10-2.109 0v2.953c0 .581-.473 1.055-1.055 1.055H3.165a1.056 1.056 0 01-1.055-1.055V3.164c0-.581.473-1.055 1.055-1.055H45.14c.582 0 1.055.474 1.055 1.055v5.59c0 .582.472 1.055 1.055 1.055z" fill="#47AAE3"/><path d="M42.188 5.063H6.117c-.583 0-1.055.472-1.055 1.054V28.16a1.055 1.055 0 102.11 0V7.172h33.962v1.687a1.055 1.055 0 102.11 0V6.117c0-.582-.473-1.054-1.056-1.054zM6.862 31.317a1.061 1.061 0 00-.745-.31c-.278 0-.55.114-.746.31a1.063 1.063 0 00-.31.745c0 .278.114.55.31.746.196.196.468.31.746.31a1.058 1.058 0 00.746-1.8zm35.326 13.191c-.582 0-1.054.472-1.054 1.054v1.266H7.172V36.123a1.055 1.055 0 10-2.11 0v11.76c0 .582.472 1.054 1.055 1.054h36.072c.582 0 1.054-.472 1.054-1.054v-2.32c0-.583-.472-1.055-1.055-1.055z" fill="#47AAE3"/><path d="M32.686 37.266a1.055 1.055 0 00-1.492 0L29.11 39.35l-1.296-1.295a2.1 2.1 0 00-2.967 0l-.843.843a1.055 1.055 0 101.491 1.491l.835-.835 1.296 1.296c.409.409.946.614 1.483.614.538 0 1.075-.205 1.484-.614l2.093-2.093a1.055 1.055 0 000-1.491z" fill="#47AAE3"/><path d="M53.515 22.125a3.075 3.075 0 00.38-2.45 3.075 3.075 0 00-1.554-1.931.961.961 0 01-.518-.897 3.075 3.075 0 00-.895-2.312 3.073 3.073 0 00-2.312-.895.958.958 0 01-.897-.518 3.075 3.075 0 00-1.931-1.554 3.074 3.074 0 00-2.45.38.96.96 0 01-1.035 0 3.074 3.074 0 00-2.45-.38 3.075 3.075 0 00-1.932 1.554.963.963 0 01-.896.518 3.074 3.074 0 00-2.312.895 3.074 3.074 0 00-.895 2.312.962.962 0 01-.518.897 3.065 3.065 0 00-1.63 3.139H13.266a1.055 1.055 0 000 2.11h18.943a.958.958 0 01-.083.168 3.075 3.075 0 00-.27 2.784h-18.59a1.055 1.055 0 100 2.11h20.489c.045.12.068.25.062.384a3.072 3.072 0 003.208 3.207.96.96 0 01.896.517c.127.246.285.47.47.67v9.85a1.055 1.055 0 001.798.747l2.631-2.617 2.631 2.617a1.054 1.054 0 001.799-.748v-9.85c.184-.199.343-.424.47-.669a.962.962 0 01.896-.517 3.07 3.07 0 003.207-3.208.961.961 0 01.518-.896 3.075 3.075 0 001.554-1.932 3.075 3.075 0 00-.38-2.45.961.961 0 010-1.035zm-8.374 18.02l-1.577-1.568a1.055 1.055 0 00-1.488 0l-1.576 1.57v-6.328a3.076 3.076 0 001.803-.48.96.96 0 011.035 0 3.075 3.075 0 001.658.484c.048 0 .096-.002.145-.004v6.328zm6.717-15.08a.948.948 0 01-.486.603 3.077 3.077 0 00-1.656 2.869.948.948 0 01-.28.722.949.949 0 01-.722.28 3.076 3.076 0 00-2.868 1.656.948.948 0 01-.604.486.948.948 0 01-.766-.12 3.067 3.067 0 00-1.656-.483c-.576 0-1.153.162-1.656.484a.949.949 0 01-.766.119.948.948 0 01-.603-.486 3.075 3.075 0 00-2.869-1.656.95.95 0 01-.722-.28.948.948 0 01-.28-.723 3.075 3.075 0 00-1.656-2.868.948.948 0 01-.486-.603.948.948 0 01.12-.766 3.076 3.076 0 000-3.312.949.949 0 01-.12-.766.948.948 0 01.486-.603 3.077 3.077 0 001.656-2.868.948.948 0 01.28-.723.949.949 0 01.723-.28 3.076 3.076 0 002.868-1.656.948.948 0 01.603-.486.949.949 0 01.766.12 3.076 3.076 0 003.312 0 .949.949 0 01.766-.12c.264.07.478.243.604.486a3.076 3.076 0 002.868 1.656.948.948 0 01.722.28c.194.193.293.45.28.723a3.077 3.077 0 001.656 2.868c.243.125.415.34.486.603a.948.948 0 01-.12.766 3.077 3.077 0 000 3.312.95.95 0 01.12.766z" fill="#47AAE3"/><path d="M47.836 19.774a1.055 1.055 0 00-1.492 0l-3.5 3.5-1.394-1.393a1.055 1.055 0 00-1.491 1.492l2.139 2.14a1.051 1.051 0 001.492 0l4.246-4.247a1.055 1.055 0 000-1.492zm-34.961-7.02a1.063 1.063 0 00-.746-.309c-.277 0-.55.113-.745.31a1.063 1.063 0 00-.31.745c0 .277.113.55.31.746.196.196.468.309.745.309a1.06 1.06 0 001.055-1.055c0-.277-.113-.55-.31-.746zm8.324-.309h-5.133a1.055 1.055 0 000 2.11h5.133a1.055 1.055 0 100-2.11zM31.94 31.008H19.883a1.055 1.055 0 100 2.11H31.94a1.055 1.055 0 000-2.11z" fill="#47AAE3"/></svg>