<svg width="55" height="55" fill="none" xmlns="http://www.w3.org/2000/svg"><path d="M15.492 14.303h24.156c.407 0 .736-.33.736-.736 0-5.624-.008-11.419-9.905-12.337C30.424.55 29.141 0 27.57 0 26 0 24.716.55 24.662 1.23c-9.897.918-9.906 6.713-9.906 12.337 0 .406.33.736.737.736zM27.57 2.573c10.884 0 11.322 4.468 11.34 10.257h-6.53c-.053-1.123-1.35-2.033-2.935-2.033h-3.75c-1.587 0-2.883.91-2.936 2.033h-6.53c.017-5.788.457-10.257 11.34-10.257zM24.558 7.46l.288-.498-.288-.499h-1.001a.737.737 0 010-1.473h1.426c.263 0 .507.14.638.368l.5.867h2.899l.5-.867a.736.736 0 01.638-.368h1.427a.737.737 0 010 1.473h-1.001l-.288.499.288.498h1a.737.737 0 010 1.473h-1.426a.735.735 0 01-.638-.368l-.5-.867h-2.898l-.501.867a.734.734 0 01-.638.368h-1.426a.737.737 0 010-1.473h1zM12.644 17.938c.016-.56.066-2.263 1.245-2.708 1.167-.44 2.392.781 2.625 1.03a.737.737 0 01-1.076 1.007c-.364-.385-.883-.69-1.032-.658.004 0-.255.206-.29 1.372-.095 3.265 2.457 4.154 2.483 4.162a.734.734 0 01.477.505l.039.141c.012.044.02.089.024.134.701 8.368 7.33 11.075 10.43 11.075 3.1 0 9.73-2.708 10.432-11.076a.734.734 0 01.023-.133l.04-.142a.739.739 0 01.477-.504c.1-.036 2.577-.933 2.482-4.163-.035-1.17-.295-1.373-.298-1.375-.158-.04-.698.312-1.024.661a.736.736 0 11-1.076-1.007c.234-.249 1.457-1.472 2.626-1.03 1.178.444 1.227 2.147 1.244 2.707.092 3.108-1.767 4.802-3.056 5.425-.856 8.348-7.417 12.108-11.87 12.108-4.451 0-11.014-3.76-11.869-12.108-1.29-.621-3.147-2.316-3.056-5.423zm4.704 17.489c-2.372.869-12.71 5.4-12.71 18.357a.737.737 0 01-1.473 0c0-14.704 12.77-19.435 14.1-19.886l-.056-1.02a.737.737 0 01.695-.776.742.742 0 01.775.695l.28 5.114 3.304-1.55a.736.736 0 11.626 1.333l-4.292 2.014a.74.74 0 01-.691-.034.736.736 0 01-.357-.592l-.201-3.655zM14.113 51.32v2.464a.737.737 0 01-1.473 0V51.32a.737.737 0 011.473 0zm37.723 2.464a.737.737 0 01-1.473 0c0-12.533-10.068-17.312-12.711-18.35l-.2 3.648a.737.737 0 01-1.048.626l-4.292-2.014a.736.736 0 11.626-1.333l3.303 1.55.28-5.114a.737.737 0 011.47.08l-.055 1.019c1.999.718 14.1 5.658 14.1 19.888zM42.36 51.32v2.464a.737.737 0 01-1.473 0V51.32a.737.737 0 011.473 0zM28.953 17.927a.735.735 0 00-.56.257.737.737 0 00-.13.242h-1.388a.737.737 0 00-.13-.242.737.737 0 00-.56-.257h-7.133a.737.737 0 00-.736.748c.01.59.123 3.58 1.341 4.57.766.621 1.965 1.008 3.13 1.008 1.101 0 2.022-.345 2.593-.97.655-.718 1.087-2.279 1.325-3.384h1.73c.237 1.105.67 2.666 1.324 3.384.57.626 1.492.97 2.593.97 1.166 0 2.365-.387 3.13-1.009 1.218-.99 1.332-3.979 1.343-4.569a.738.738 0 00-.737-.748h-7.135zm-4.66 4.362c-.286.312-.834.49-1.506.49-.817 0-1.702-.273-2.202-.678-.367-.299-.653-1.514-.757-2.701h5.476c-.238 1.142-.623 2.464-1.011 2.89zm10.26-.188c-.5.405-1.384.679-2.202.679-.672 0-1.22-.18-1.504-.49-.388-.425-.773-1.748-1.011-2.89h5.475c-.104 1.187-.39 2.403-.758 2.7zm-5.952 15.925v16.238a.737.737 0 01-1.473 0V38.026a.737.737 0 011.473 0zm-4.284 10.679c0 .406-.33.736-.736.736h-6.873a.737.737 0 010-1.473h6.873c.407 0 .736.33.736.737z" fill="#47AAE3"/></svg>