<svg width="1439" height="301" fill="none" xmlns="http://www.w3.org/2000/svg"><path d="M189.671 30.665H31.516l.424 269.67H.987V3.529h188.684v27.136zM354.723 1.409c37.596 0 67.135 9.893 88.618 29.68 21.483 19.787 32.225 47.065 32.225 81.834 0 33.638-10.035 60.209-30.105 79.714-20.07 19.222-47.63 28.832-82.682 28.832-17.243 0-33.638-2.402-49.185-7.208-15.547-5.088-31.094-12.72-46.641-22.896v108.97h-30.952V117.587c0-36.747 10.317-65.297 30.952-85.65 20.918-20.352 50.175-30.528 87.77-30.528zm3.392 194.196c26.854 0 47.913-7.208 63.178-21.625 15.264-14.699 22.896-34.91 22.896-60.633 0-26.006-7.915-46.5-23.744-61.481-15.83-14.982-37.454-22.473-64.874-22.473-27.984 0-49.75 7.774-65.297 23.32-15.547 15.265-23.321 36.89-23.321 64.874v43.673c12.438 11.307 26.289 19.929 41.553 25.865 15.547 5.653 32.084 8.48 49.609 8.48zm243.849-164.94v242.533h60.209v27.137H510.802v-27.137h60.209V30.665h-60.209V3.53h151.371v27.136h-60.209zM1094.79 3.529v296.806H730.995V3.529h30.953v269.669H897.63V3.528h30.953v269.67h135.257V3.528h30.95zM1314.33.985c38.44 0 68.68 11.307 90.73 33.92 22.33 22.331 33.5 54.698 33.5 97.098v168.332h-30.95v-87.346h-186.57v87.346h-30.53V132.003c0-42.4 11.03-74.766 33.08-97.098 22.33-22.613 52.57-33.92 90.74-33.92zm93.28 184.868v-56.818c0-33.072-8.2-57.947-24.6-74.625-16.39-16.96-39.29-25.44-68.68-25.44-29.4 0-52.3 8.48-68.69 25.44-16.4 16.678-24.6 41.553-24.6 74.625v56.818h186.57z" fill="#fff"/></svg>