<svg width="18" height="18" fill="none" xmlns="http://www.w3.org/2000/svg"><path d="M16.572 11.426a8.432 8.432 0 00-2.15-1.346.703.703 0 00-.571 1.285c.7.311 1.303.687 1.793 1.117.603.53.95 1.299.95 2.108v1.3a.704.704 0 01-.703.704H2.109a.704.704 0 01-.703-.703V14.59a2.8 2.8 0 01.95-2.107c.71-.625 2.78-2.077 6.644-2.077a5.21 5.21 0 005.203-5.203A5.21 5.21 0 009 0a5.21 5.21 0 00-5.203 5.203 5.2 5.2 0 002.034 4.124c-2.262.497-3.669 1.454-4.403 2.1A4.21 4.21 0 000 14.59v1.3C0 17.055.946 18 2.11 18h13.78c1.164 0 2.11-.946 2.11-2.11v-1.3a4.21 4.21 0 00-1.428-3.164zM5.203 5.203A3.801 3.801 0 019 1.406a3.801 3.801 0 013.797 3.797A3.801 3.801 0 019 9a3.801 3.801 0 01-3.797-3.797z" fill="#000"/></svg>