<svg width="58" height="58" fill="none" xmlns="http://www.w3.org/2000/svg"><g clip-path="url(#clip0)" fill="#fff"><path d="M11.618 4.157a.959.959 0 00-.644-1.054L2.348.227a.958.958 0 00-1.161.48L.228 2.622a.958.958 0 00.422 1.29c.003 0 .005.002.008.003l5.107 2.549-1.787 9.835a.977.977 0 00-.016.121L2.045 52.841a.959.959 0 00.28.729l3.833 3.834a.959.959 0 001.356 0l3.833-3.834a.958.958 0 00.28-.728L9.71 16.516l1.908-12.36zm-5.74 12.425L7.78 6.1a.958.958 0 00-.514-1.03L2.377 2.624l.158-.316 7.071 2.357-1.8 11.66a.955.955 0 00-.01.197l.25 4.741H5.627l.252-4.68zm-.351 6.598h2.62l.1 1.917h-2.82l.1-1.917zm-.207 3.834h3.028l.101 1.917H5.224l.096-1.917zm-.202 3.834h3.433l.1 1.917H5.023l.095-1.917zm-.198 3.834h3.834l.1 1.917h-4.03l.096-1.917zm-.2 3.834h4.236l.1 1.916H4.62l.1-1.916zM6.837 55.37l-2.854-2.855.535-10.167h4.637l.536 10.167-2.854 2.855zM22.85 4.689a.959.959 0 00-.103-1.445L18.913.37l-1.15 1.534 2.95 2.212-2.094 2.094a.958.958 0 00-.28.678v4.792h-.959a.957.957 0 00-.958.958v32.588c0 .529.429.958.958.958h.958v3.185l-2.396.959a3.816 3.816 0 001.42 7.358h2.893v-1.917h-2.893a1.899 1.899 0 01-.706-3.663l2.997-1.198a.958.958 0 00.602-.89v-3.834h.959c.53 0 .958-.43.958-.958V12.637a.957.957 0 00-.958-.958h-.959V7.283L22.85 4.69zm-2.595 39.577h-1.917V42.35h1.917v1.917zm0-3.834h-1.917V17.43h1.917v23.003zm0-24.92h-1.917v-1.916h1.917v1.917zm35.463 7.668h-.958v-8.549c2.857-1.841 3.738-6.147 1.917-9.848A8.229 8.229 0 0051.944.477a5.713 5.713 0 00-4.497.36c-3.141 1.698-4.165 6.216-2.272 10.075a8.229 8.229 0 004.733 4.306 6.113 6.113 0 001.868.298 5.624 5.624 0 001.067-.117v7.781h-.959a.959.959 0 00-.958.959v32.587c0 .53.429.959.958.959h3.834a.96.96 0 00.959-.959V24.14a.96.96 0 00-.959-.959zm-5.23-9.793a6.301 6.301 0 01-3.594-3.323c-1.443-2.942-.783-6.326 1.468-7.541a3.56 3.56 0 011.71-.429c.44.003.874.073 1.29.21a6.304 6.304 0 013.596 3.322c1.443 2.942.783 6.326-1.468 7.541a3.753 3.753 0 01-3.001.22zm4.272 42.38h-1.917V28.932h1.917v26.837zm0-28.753h-1.917v-1.917h1.917v1.917zM47.978 50.99a5.751 5.751 0 00-4.851-4.74l-4.673-28.973a.952.952 0 00-.371-.614l-.895-.671.895-.671a.959.959 0 00.383-.83L37.508.114 35.59.241l.924 13.858-.924.695-.926-.695L35.59.24 33.674.114l-.959 14.377a.959.959 0 00.384.83l.895.67-.895.672a.953.953 0 00-.371.614L28.054 46.25a5.75 5.75 0 106.492 6.643h2.09a5.75 5.75 0 0011.342-1.902zm-19.097 4.778a3.834 3.834 0 110-7.668 3.834 3.834 0 010 7.668zm7.754-4.793h-2.089a5.761 5.761 0 00-4.556-4.683l4.569-28.328 1.032-.774 1.032.774 4.569 28.328a5.762 5.762 0 00-4.557 4.683zm5.665 4.793a3.834 3.834 0 110-7.668 3.834 3.834 0 010 7.668z"/></g><defs><clipPath id="clip0"><path fill="#fff" transform="translate(.086 .114)" d="M0 0h57.579v57.579H0z"/></clipPath></defs></svg>