<svg width="58" height="57" fill="none" xmlns="http://www.w3.org/2000/svg"><g clip-path="url(#clip0)" fill="#fff"><path d="M55.674 40.502l-11.543-7.104a1.684 1.684 0 00-.208-.105 2.743 2.743 0 00-.675-.272 3.595 3.595 0 00-.335-.084 3.949 3.949 0 00-.417-.047 1.644 1.644 0 00-.221-.018h-5.328V24.88h1.774v1.775c0 .49.397.888.888.888h2.664v.887a.887.887 0 101.775 0v-.887h1.776v.887a.887.887 0 101.775 0v-.887h1.775v.887a.887.887 0 101.776 0v-.887h2.665c.49 0 .887-.397.887-.888v-5.326a.887.887 0 00-.887-.888H39.609a.887.887 0 00-.888.888v1.775h-1.774V4.466h8.877v.07c-3.007.432-5.326 3.018-5.326 6.144a6.222 6.222 0 006.213 6.213 6.222 6.222 0 006.214-6.213c0-3.126-2.32-5.712-5.326-6.145v-.07h6.22c.49 0 .887-.396.887-.887V.915a.887.887 0 00-.888-.888H36.06a3.554 3.554 0 00-3.55 3.551v19.53h-.907v-.001a.887.887 0 10-1.775 0v.002h-.869v-3.553a.887.887 0 10-1.775 0v3.553h-.888v-.002a.887.887 0 10-1.775 0v.002h-1.776a.887.887 0 00-.887.887v2.663a2.666 2.666 0 002.662 2.663h7.102c.313 0 .609-.063.888-.164v1.05h-9.765a.887.887 0 00-.887.888v1.777h-.871L6.959 13.895a3.569 3.569 0 00-2.86-1.441 3.52 3.52 0 00-2.107.695 3.56 3.56 0 00-.744 4.967l15.081 20.406a.602.602 0 00.12.135c.116.145.241.279.389.412a4.002 4.002 0 00.872.573c.166.077.341.137.53.19.022.008.043.013.065.02v2.784h-2.663a.887.887 0 00-.888.887v6.285c-3.006.433-5.326 3.02-5.326 6.143 0 .49.397.888.888.888h39.058c.49 0 .887-.397.887-.888 0-7.043-5.499-12.81-12.427-13.27v-2.706h3.435l10.68 6.573c.56.346 1.203.528 1.86.528a3.528 3.528 0 003.026-1.69 3.553 3.553 0 00-1.16-4.884zM40.497 22.217h12.43v3.551H51.15v-1.775a.887.887 0 10-1.776 0v1.775H47.6v-1.775a.887.887 0 10-1.775 0v1.775h-1.776v-1.775a.887.887 0 10-1.775 0v1.775h-1.776v-3.55zM51.15 10.68a4.443 4.443 0 01-4.439 4.438 4.443 4.443 0 01-4.438-4.438 4.444 4.444 0 014.438-4.44 4.444 4.444 0 014.439 4.44zM36.06 1.803h16.87v.887H36.06a.887.887 0 00-.888.888v29.295h-.888V3.578c0-.979.796-1.775 1.775-1.775zm-3.551 24.856c0 .49-.398.888-.888.888h-7.102a.888.888 0 01-.887-.888v-1.775h8.877v1.775zm-8.877 5.325h8.877v.89h-8.877v-.89zm-5.326 17.753H16.53v-5.326h1.775v5.326zm30.135 5.326H11.295a4.445 4.445 0 014.348-3.55h3.55a.887.887 0 00.888-.888V44.41h16.866c6.063 0 11.04 4.704 11.494 10.652zM36.06 42.636H20.081v-2.662H36.06v2.662zm19.266 1.82c-.497.807-1.633 1.082-2.443.58L41.987 38.33a.888.888 0 00-.465-.13H19.194c-.124 0-.248-.016-.371-.044a5.932 5.932 0 00-.111-.035 1.89 1.89 0 01-.262-.092l-.113-.063a1.883 1.883 0 01-.322-.227 1.84 1.84 0 01-.196-.21.382.382 0 00-.056-.059c-.001 0-.001.003.003.01L2.676 17.061a1.781 1.781 0 01.373-2.486c.767-.565 1.919-.39 2.482.375l14.293 19.338c.167.226.431.36.713.36h12.845c.006 0 .01.003.015.003.006 0 .01-.003.015-.003h2.635c.004 0 .009.003.014.003.005 0 .01-.003.014-.003h6.178c.048.007.095.013.17.017.052.004.106.006.168.018.056.01.108.027.205.055.035.01.073.018.135.044.056.02.105.05.182.09.016.009.076.033.092.04l11.538 7.102a1.775 1.775 0 01.581 2.441z"/><path d="M46.737 12.455h-.01a.883.883 0 00-.881.888.89.89 0 001.78 0 .888.888 0 00-.89-.888zm-.892-4.438a.89.89 0 001.78 0 .887.887 0 00-.888-.888h-.009a.884.884 0 00-.883.888zm3.199 4.882a.887.887 0 100-1.776h-.01a.883.883 0 00-.882.888c0 .491.4.888.892.888zM44.431 8.46h-.01a.883.883 0 00-.882.888.89.89 0 001.78 0 .888.888 0 00-.888-.888zm4.613 1.774a.887.887 0 100-1.775h-.01a.883.883 0 00-.882.887c0 .491.4.888.892.888zm-4.613.888h-.01a.883.883 0 00-.882.887.89.89 0 001.78 0 .888.888 0 00-.888-.887z"/></g><defs><clipPath id="clip0"><path fill="#fff" transform="translate(.551 .027)" d="M0 0h56.811v56.811H0z"/></clipPath></defs></svg>