<svg width="55" height="55" viewBox="0 0 55 55" fill="none" xmlns="http://www.w3.org/2000/svg">
<path d="M15.4919 14.3033H39.6481C40.0546 14.3033 40.3845 13.9733 40.3845 13.5668C40.3845 7.94331 40.3764 2.14821 30.4793 1.22986C30.4241 0.550125 29.1412 0 27.5696 0C25.9981 0 24.7152 0.550125 24.6607 1.22986C14.7636 2.14821 14.7555 7.94331 14.7555 13.5668C14.7555 13.9733 15.0847 14.3033 15.4919 14.3033ZM27.5696 2.57314C38.4536 2.57314 38.8925 7.04116 38.9102 12.8304H32.3801C32.3271 11.7065 31.0309 10.797 29.4446 10.797H25.6946C24.1083 10.797 22.8122 11.7065 22.7592 12.8304H16.2291C16.246 7.0419 16.6857 2.57314 27.5696 2.57314ZM24.5576 7.4602L24.8455 6.96163L24.5576 6.46305H23.5567C23.1502 6.46305 22.8203 6.13312 22.8203 5.7266C22.8203 5.32009 23.1502 4.99016 23.5567 4.99016H24.9832C25.2461 4.99016 25.4899 5.13008 25.621 5.35838L26.1218 6.22518H29.0197L29.5205 5.35838C29.6523 5.13008 29.8953 4.99016 30.1582 4.99016H31.5847C31.9913 4.99016 32.3212 5.32009 32.3212 5.7266C32.3212 6.13312 31.9913 6.46305 31.5847 6.46305H30.5839L30.296 6.96163L30.5839 7.4602H31.5847C31.9913 7.4602 32.3212 7.79013 32.3212 8.19664C32.3212 8.60316 31.9913 8.93309 31.5847 8.93309H30.1582C29.8953 8.93309 29.6516 8.79317 29.5205 8.56487L29.0197 7.69807H26.1218L25.621 8.56487C25.4899 8.79317 25.2469 8.93309 24.9832 8.93309H23.5567C23.1502 8.93309 22.8203 8.60316 22.8203 8.19664C22.8203 7.79013 23.1502 7.4602 23.5567 7.4602H24.5576ZM12.6441 17.9376C12.6603 17.3779 12.7104 15.6753 13.8887 15.2297C15.0559 14.79 16.2807 16.0111 16.5141 16.2607C16.7917 16.5575 16.7763 17.0237 16.4795 17.3021C16.182 17.579 15.7158 17.5635 15.4382 17.2675C15.0736 16.8816 14.5552 16.5767 14.4064 16.6091C14.4101 16.6091 14.1509 16.8153 14.1162 17.9811C14.0205 21.2465 16.573 22.1354 16.5988 22.1435C16.8323 22.2208 17.0112 22.4101 17.076 22.6479L17.115 22.7893C17.1268 22.8328 17.1349 22.8777 17.1386 22.9226C17.8404 31.2909 24.4699 33.998 27.5696 33.998C30.6693 33.998 37.2988 31.2901 38.0007 22.9219C38.0043 22.877 38.0124 22.832 38.0242 22.7886L38.0633 22.6472C38.1281 22.4101 38.3078 22.2208 38.5405 22.1427C38.6414 22.1074 41.118 21.2096 41.023 17.9803C40.9884 16.8101 40.7277 16.6069 40.7248 16.6047C40.5672 16.5649 40.0266 16.9169 39.7011 17.266C39.4235 17.5635 38.9573 17.579 38.6598 17.3006C38.3623 17.0222 38.3475 16.5568 38.6252 16.2593C38.8586 16.0103 40.0819 14.7871 41.2506 15.2282C42.4289 15.673 42.4783 17.3764 42.4952 17.9361C42.5865 21.0439 40.7285 22.7385 39.4389 23.3615C38.5832 31.7092 32.0215 35.4687 27.5696 35.4687C23.1178 35.4687 16.5553 31.7092 15.7003 23.3615C14.4108 22.74 12.5528 21.0454 12.6441 17.9376ZM17.3478 35.4267C14.9757 36.2957 4.63744 40.8278 4.63744 53.7841C4.63744 54.1906 4.30752 54.5206 3.901 54.5206C3.49448 54.5206 3.16455 54.1906 3.16455 53.7841C3.16455 39.0795 15.9353 34.3493 17.2645 33.8979L17.2086 32.8772C17.1865 32.4714 17.498 32.1238 17.9038 32.1017C18.3029 32.0825 18.6564 32.3904 18.6793 32.7969L18.9591 37.9115L22.2628 36.3613C22.6303 36.189 23.0692 36.3458 23.2423 36.7148C23.4153 37.083 23.257 37.5212 22.8888 37.6943L18.5968 39.7084C18.4974 39.7548 18.3906 39.7784 18.2838 39.7784C18.1527 39.7784 18.0223 39.7438 17.906 39.6738C17.6961 39.5486 17.5621 39.3262 17.5488 39.0817L17.3478 35.4267ZM14.1133 51.32V53.7841C14.1133 54.1906 13.7834 54.5206 13.3768 54.5206C12.9703 54.5206 12.6404 54.1906 12.6404 53.7841V51.32C12.6404 50.9135 12.9703 50.5835 13.3768 50.5835C13.7834 50.5835 14.1133 50.9135 14.1133 51.32ZM51.8363 53.7841C51.8363 54.1906 51.5063 54.5206 51.0998 54.5206C50.6933 54.5206 50.3634 54.1906 50.3634 53.7841C50.3634 41.2513 40.2954 36.4725 37.6516 35.4348L37.452 39.0817C37.4388 39.3262 37.3047 39.5479 37.0948 39.6738C36.9785 39.743 36.8481 39.7784 36.717 39.7784C36.6102 39.7784 36.5035 39.7556 36.404 39.7084L32.112 37.6943C31.7438 37.5212 31.5855 37.083 31.7585 36.7148C31.9316 36.3458 32.3705 36.1882 32.738 36.3613L36.041 37.9115L36.3208 32.7969C36.3429 32.3911 36.6905 32.0833 37.0963 32.1017C37.5021 32.1238 37.8136 32.4714 37.7915 32.8772L37.7355 33.8957C39.735 34.6137 51.8363 39.5538 51.8363 53.7841ZM42.3589 51.32V53.7841C42.3589 54.1906 42.029 54.5206 41.6225 54.5206C41.216 54.5206 40.8861 54.1906 40.8861 53.7841V51.32C40.8861 50.9135 41.216 50.5835 41.6225 50.5835C42.029 50.5835 42.3589 50.9135 42.3589 51.32ZM28.9527 17.9266C28.7376 17.9266 28.5336 18.0201 28.3937 18.1836C28.3326 18.255 28.2936 18.339 28.2634 18.4259H26.8752C26.845 18.339 26.8059 18.255 26.7448 18.1836C26.6049 18.0208 26.4009 17.9266 26.1859 17.9266H19.0519C18.8545 17.9266 18.6653 18.0061 18.5268 18.1468C18.3884 18.2874 18.3125 18.4782 18.3155 18.6755C18.3258 19.2647 18.4392 22.2547 19.6573 23.2444C20.4232 23.866 21.6221 24.2526 22.7872 24.2526C23.8881 24.2526 24.8087 23.908 25.3802 23.2827C26.0349 22.5654 26.4672 21.0042 26.705 19.8988H28.4342C28.6721 21.0042 29.1044 22.5654 29.7591 23.2827C30.3298 23.9087 31.2511 24.2526 32.3521 24.2526C33.5179 24.2526 34.7168 23.866 35.482 23.2444C36.7001 22.2547 36.8142 19.2654 36.8246 18.6755C36.8275 18.4782 36.7516 18.2874 36.6132 18.1468C36.4747 18.0061 36.2855 17.9266 36.0881 17.9266H28.9527ZM24.2925 22.2893C24.0074 22.6008 23.4595 22.7797 22.7872 22.7797C21.9697 22.7797 21.0852 22.5065 20.5852 22.1007C20.2184 21.8025 19.932 20.5866 19.8281 19.3995H25.3036C25.0657 20.5417 24.6806 21.8643 24.2925 22.2893ZM34.5534 22.1007C34.0533 22.5065 33.1688 22.7797 32.3514 22.7797C31.679 22.7797 31.1311 22.6008 30.8468 22.2893C30.4595 21.8651 30.0736 20.5417 29.8357 19.3995H35.3112C35.2073 20.5873 34.9201 21.8032 34.5534 22.1007ZM28.6007 38.0264V54.2636C28.6007 54.6701 28.2707 55 27.8642 55C27.4577 55 27.1278 54.6701 27.1278 54.2636V38.0264C27.1278 37.6199 27.4577 37.2899 27.8642 37.2899C28.2707 37.2899 28.6007 37.6199 28.6007 38.0264ZM24.3175 48.7049C24.3175 49.1114 23.9876 49.4413 23.581 49.4413H16.7078C16.3013 49.4413 15.9713 49.1114 15.9713 48.7049C15.9713 48.2983 16.3013 47.9684 16.7078 47.9684H23.581C23.9876 47.9684 24.3175 48.2983 24.3175 48.7049Z" fill="#47AAE3"/>
</svg>
