<svg width="74" height="74" viewBox="0 0 74 74" fill="none" xmlns="http://www.w3.org/2000/svg">
<g clip-path="url(#clip0)">
<path d="M73.1081 33.3883C72.3092 32.2009 71.1438 31.2659 70.2927 30.5836C70.0422 30.3825 69.6989 30.1073 69.6155 30.0145C69.4042 29.7612 69.1995 29.5256 69.0063 29.3035C68.5391 28.766 68.0096 28.1571 67.9609 27.8819C67.9482 27.81 68.0638 27.4806 68.7427 26.8284C70.9378 24.7202 69.2845 21.9976 68.2967 20.3709C68.0505 19.9655 67.696 19.3815 67.5769 19.0662C67.8284 18.5784 68.1466 17.7886 67.8766 16.8956C67.5364 15.7711 66.4432 15.0767 65.4191 14.546C65.2842 14.4762 65.1651 14.4048 65.0499 14.336C64.6161 14.0769 63.809 13.5938 62.8199 14.0803C62.257 14.357 61.8091 14.8601 61.018 15.8832C60.8722 16.072 60.551 16.3547 60.211 16.6541C59.9784 16.8589 59.7148 17.091 59.448 17.3447C58.8694 17.8947 58.8459 18.8095 59.3959 19.3883C59.9458 19.9669 60.8607 19.9903 61.4395 19.4403C61.6667 19.2244 61.8981 19.0207 62.1219 18.8236C62.5684 18.4302 62.9902 18.0588 63.3051 17.6516C63.539 17.3492 63.7132 17.1331 63.8428 16.9792C63.9181 17.0217 64 17.0665 64.089 17.1127C64.6216 17.3887 64.8941 17.5844 65.0275 17.698C65.0022 17.75 64.9674 17.8174 64.9197 17.9038C64.2032 19.1992 65.0281 20.5577 65.8258 21.8714C66.2559 22.5794 66.7003 23.3117 66.8696 23.9268C67.0202 24.4747 66.8716 24.6175 66.7404 24.7435C63.7275 27.6374 65.445 29.6129 66.8248 31.2002C67.006 31.4086 67.1981 31.6296 67.3965 31.867C67.6468 32.167 67.9981 32.4486 68.484 32.8386C70.3576 34.3413 71.3966 35.4522 71.0248 36.4956C70.1587 36.3857 68.1949 35.4991 67.4085 34.8216C66.5257 34.0611 64.1697 32.5992 61.3675 35.445C59.1694 37.6774 58.2276 40.3016 58.8478 42.4645C59.2009 43.6963 60.0639 44.5876 61.1558 44.8487C62.3218 45.1269 63.5772 44.6561 64.5994 43.5554C64.7984 43.3413 65.6363 43.2034 66.2145 43.5842C67.1236 44.183 66.5356 45.7986 66.2407 46.4655C65.499 48.1421 66.1652 49.4723 66.6516 50.4435C67.1742 51.487 67.5193 52.1762 66.7402 53.5861C66.0852 54.7712 65.5083 55.1021 65.2679 55.1677C65.55 54.3548 65.4273 53.712 65.3084 53.089C65.2416 52.7389 65.1659 52.3421 65.1296 51.784C65.0822 51.0531 64.681 50.4511 64.0289 50.1323C62.668 49.467 60.6289 50.3594 60.0399 50.7595C60.0231 50.7709 59.9784 50.8014 59.8397 50.7727C59.6057 50.7241 59.3831 50.5644 59.2825 50.4568C59.0901 49.2716 58.164 48.3729 56.9233 48.1925C55.4713 47.9822 54.0757 48.7843 53.5305 50.1446C52.9312 51.6405 52.9803 52.8238 53.0539 53.6001C53.0228 53.6005 52.9903 53.6007 52.956 53.6007C51.2374 53.6007 50.4668 54.3121 50.0333 55.0525C49.1003 54.8513 48.1054 55.0473 47.2191 55.222C47.1007 55.2453 46.9599 55.2731 46.8217 55.2982C46.0324 53.2348 44.5042 52.5574 43.2363 52.6411C41.5746 52.7515 40.1928 54.0891 40.0219 55.7524C39.9647 56.3107 39.8318 56.5057 39.7966 56.5485C39.7559 56.553 39.6764 56.5403 39.6308 56.5218C37.4445 55.326 36.0316 56.3612 35.2717 56.918C35.1172 57.0312 34.8871 57.1998 34.7888 57.2342C33.8334 57.0963 33.0095 56.6993 32.1195 55.9482C31.5094 55.4332 30.5975 55.5106 30.0826 56.1207C29.5677 56.7308 29.6449 57.6426 30.255 58.1576C31.571 59.2683 32.8875 59.885 34.398 60.0987C34.5373 60.1185 34.6716 60.1274 34.8012 60.1274C35.7828 60.1274 36.492 59.6077 36.9805 59.2498C37.5928 58.801 37.6716 58.7433 38.2496 59.0614C38.9218 59.4313 40.0823 59.6662 41.1411 59.1114C41.8362 58.747 42.7052 57.9198 42.8975 56.0477C42.9258 55.7716 43.2058 55.5402 43.4278 55.5256C43.7394 55.4997 44.0862 56.0455 44.2766 56.8401C44.4416 57.5293 45.0536 58.2622 46.2766 58.2622H46.2972C46.758 58.2592 47.2532 58.1616 47.7774 58.0584C48.3186 57.9519 49.1359 57.7907 49.4529 57.8858C50.8772 58.3125 51.889 57.8954 52.4607 56.6461C52.4769 56.6108 52.4965 56.5679 52.5133 56.5335C52.5788 56.5164 52.7151 56.4917 52.9559 56.4917C53.8944 56.4917 54.8494 56.3959 55.4763 55.7002C56.1055 55.002 56.0175 54.1567 55.9532 53.5395C55.8886 52.9186 55.8153 52.2149 56.2139 51.22C56.2436 51.1462 56.2843 51.103 56.3505 51.0753C56.3841 51.0613 56.4169 51.0547 56.4453 51.0524C56.6153 52.1203 57.5874 52.9335 58.395 53.3142C59.5314 53.8502 60.723 53.7906 61.6631 53.1517C61.7943 53.0662 62.071 52.9589 62.3394 52.8819C62.3821 53.178 62.4292 53.4248 62.4687 53.6313C62.5669 54.1462 62.5583 54.1676 62.5262 54.2478C61.9818 55.6049 62.5953 57.1614 63.9226 57.7916C65.31 58.45 67.5426 58.11 69.2702 54.9846C70.7854 52.2427 69.8531 50.3811 69.2362 49.1491C68.8035 48.2849 68.7124 48.0234 68.8841 47.635C70.7129 43.5009 68.5202 41.6415 67.8047 41.17C66.145 40.0767 63.7071 40.2679 62.4809 41.588C62.1173 41.9794 61.8673 42.0413 61.8328 42.0387C61.8001 42.0231 61.6543 41.8781 61.5882 41.4997C61.4334 40.6132 61.8353 39.0901 63.4273 37.4733C64.6344 36.2474 65.1261 36.6709 65.5213 37.0117C66.643 37.9782 69.8667 39.6784 71.7754 39.3489C72.456 39.2311 73.0051 38.8703 73.3267 38.3311C74.2943 36.7907 74.2169 35.0364 73.1081 33.3883Z" fill="#47AAE3"/>
<path d="M37.2939 32.2171C38.6094 30.971 39.16 30.5638 40.169 30.8837C40.7786 31.0771 40.8425 31.218 40.9163 31.381C41.2725 32.1669 42.0363 32.973 43.6495 32.3488C44.5612 31.9965 45.2041 31.7628 45.5705 31.6505C45.8822 31.8355 46.3037 31.9854 46.9577 32.0396C49.9936 32.2906 50.754 30.9585 51.2283 29.6893C51.4163 29.1863 51.4706 29.1026 51.6746 29.0015C51.7153 28.9814 51.7638 28.9603 51.8183 28.9375C52.5543 28.6283 52.9004 27.7811 52.5912 27.0451C52.282 26.309 51.4348 25.9628 50.6988 26.2721C50.5789 26.3226 50.4778 26.3682 50.3909 26.4113C49.1349 27.0331 48.7501 28.0623 48.5204 28.6772C48.4675 28.8185 48.389 29.0286 48.342 29.0962C48.2922 29.1201 48.0162 29.2266 47.1967 29.1585C47.1182 29.152 47.0628 29.1441 47.0264 29.1377C46.1199 28.3783 45.2852 28.623 43.1209 29.454C42.7385 28.9538 42.1304 28.4726 41.0431 28.1276C38.3187 27.2634 36.5773 28.9134 35.3057 30.118C33.7203 31.6198 32.5751 32.7046 29.493 31.1078C28.8034 30.7505 28.0499 30.794 27.4259 31.2275C27.0657 31.4776 26.824 31.804 26.6106 32.0918C26.2903 32.5241 26.1828 32.6261 26.0346 32.6383C25.7353 32.6628 25.4893 32.7491 25.2964 32.8398C25.2341 32.7756 25.1584 32.6925 25.0686 32.5857C24.5611 31.9819 23.8929 31.8548 23.1894 31.9157C23.6216 30.6837 23.9062 29.3758 23.9062 28.0672C23.9062 22.5004 19.4075 17.9401 13.869 17.8807C13.8511 17.88 13.8332 17.8797 13.8153 17.8797L13.7904 17.88C13.7518 17.8793 13.7308 17.8797 13.7073 17.8807C8.16863 17.9401 3.66997 22.5004 3.66997 28.0672C3.66997 30.5236 4.67296 32.9772 5.77179 34.9296C4.37 35.6212 4.38648 37.1035 4.39602 37.9211C4.40845 38.9872 4.37607 39.2798 3.51386 39.6136C3.09815 39.7744 2.77972 40.1183 2.65136 40.5453C2.4039 41.3678 2.36141 42.0636 2.95794 42.7852C2.96199 42.7901 2.96647 42.7953 2.97081 42.8006C2.99422 42.8678 3.07488 43.1568 3.07488 43.9447C3.07488 44.7778 3.2294 45.54 3.35342 46.1523C3.43364 46.5476 3.55347 47.1388 3.50938 47.3322C3.44708 47.3857 3.09454 47.6365 1.81879 47.7959C1.24177 47.8679 0.744823 48.1545 0.419742 48.6031C-0.214375 49.4774 0.00287558 50.5963 0.212899 51.6784C0.309888 52.1785 0.420031 52.7454 0.401529 53.1092C0.317694 54.757 1.59503 55.2468 2.07579 55.4311C2.52908 55.6048 2.82858 55.7196 3.00651 56.9647C3.19832 58.3078 4.55126 59.3281 6.0817 59.3281C6.16264 59.3281 6.24416 59.3251 6.32583 59.3193C7.70247 59.2215 9.30749 58.1748 9.34276 55.5526C9.81036 55.4653 10.5815 55.2839 11.1368 54.5395C11.6641 53.8327 11.8346 52.8713 11.6893 51.4221C11.603 50.5616 11.969 50.1112 12.2562 50.0662C12.4954 50.0287 12.6663 50.4155 12.7397 50.7581C13.1532 52.6883 14.4212 54.744 16.3218 54.9859C17.3573 55.1178 18.849 54.7579 20.0896 52.304C20.1031 52.2965 20.1258 52.2853 20.1602 52.2725C20.9086 51.9947 21.2901 51.1627 21.0123 50.4144C20.7345 49.666 19.9026 49.2844 19.1542 49.5623C18.4111 49.8381 17.8466 50.3269 17.5217 50.9759C17.0775 51.863 16.7476 52.0723 16.6689 52.1116C16.4288 52.0194 15.8116 51.2967 15.5666 50.1523C15.0635 47.8049 13.2661 46.9807 11.8087 47.2099C10.1636 47.4678 8.55456 49.1327 8.81286 51.7102C8.86635 52.2443 8.84842 52.5491 8.82486 52.7083C8.79393 52.7141 8.76285 52.7197 8.73495 52.7248C8.17036 52.8267 6.45231 53.1369 6.45231 55.4646C6.45231 56.0828 6.29736 56.378 6.19979 56.4189C6.09875 56.4611 5.93599 56.4232 5.84045 56.3749C5.41838 53.8099 4.07628 53.116 3.28924 52.8009C3.26452 52.2282 3.15221 51.6501 3.05074 51.1271C3.01735 50.9552 2.97616 50.7425 2.94349 50.5456C4.39139 50.2734 5.30723 49.7885 5.86488 49.0126C6.65915 47.9077 6.40822 46.6698 6.18678 45.5775C6.07823 45.0415 5.96577 44.4873 5.96577 43.9441C5.96577 42.8972 5.85447 42.2265 5.65818 41.7306C7.31784 40.5611 7.29731 38.805 7.28662 37.8867C7.28503 37.7468 7.28286 37.5604 7.28922 37.4188C7.31162 37.408 7.33114 37.3947 7.35311 37.3834C7.41295 37.4655 7.47192 37.5459 7.52887 37.6222C8.15157 38.4566 11.3795 42.6195 13.7881 42.6195C16.1966 42.6195 19.4247 38.4566 20.0473 37.6222C20.5127 36.9983 21.0801 36.1777 21.6348 35.225C21.9119 35.159 22.1785 35.0882 22.4256 35.0217C22.6689 34.9562 22.9714 34.8747 23.1976 34.8271C23.7176 35.3661 24.3894 35.8632 25.2122 35.8631C25.5923 35.8631 26.0048 35.757 26.4493 35.4997C27.6827 35.3326 28.3885 34.5308 28.8044 33.9847C33.2954 36.0049 35.6872 33.7393 37.2939 32.2171ZM13.7882 39.713C13.2034 39.5012 11.4787 38.1521 9.6544 35.6337C7.68845 32.9198 6.561 30.1621 6.561 28.0675C6.561 24.0697 9.79504 20.7966 13.7703 20.7715C13.7764 20.7713 13.7823 20.7713 13.7882 20.7712C13.7943 20.7713 13.8002 20.7713 13.8063 20.7715C17.7814 20.7966 21.0155 24.0695 21.0155 28.0675C21.0155 29.5416 20.4549 31.3445 19.4388 33.229C19.4373 33.2316 19.4359 33.2344 19.4344 33.237C19.0076 34.0276 18.5024 34.8323 17.9221 35.6335C16.0976 38.1521 14.3731 39.5012 13.7882 39.713Z" fill="#47AAE3"/>
<path d="M13.7882 23.7312C11.3972 23.7312 9.4519 25.6765 9.4519 28.0675C9.4519 30.4586 11.3972 32.4039 13.7882 32.4039C16.1793 32.4039 18.1246 30.4586 18.1246 28.0675C18.1246 25.6765 16.1793 23.7312 13.7882 23.7312ZM13.7882 29.513C12.9912 29.513 12.3428 28.8646 12.3428 28.0675C12.3428 27.2705 12.9912 26.6221 13.7882 26.6221C14.5853 26.6221 15.2337 27.2705 15.2337 28.0675C15.2337 28.8646 14.5853 29.513 13.7882 29.513Z" fill="#47AAE3"/>
<path d="M56.3978 25.5821C56.6681 25.8073 56.9961 25.917 57.3223 25.917C57.7364 25.917 58.1477 25.7398 58.4336 25.3968L58.4343 25.3959C58.9454 24.7828 58.8622 23.8717 58.2489 23.3606C57.6356 22.8499 56.7238 22.9329 56.2128 23.5462C55.7017 24.1595 55.7845 25.0708 56.3978 25.5821Z" fill="#47AAE3"/>
<path d="M27.0566 51.4115L27.0557 51.4109C26.3759 50.9928 25.4861 51.205 25.0676 51.8846C24.6492 52.5646 24.8616 53.4551 25.5416 53.8736C25.7778 54.019 26.0392 54.0881 26.2977 54.0881C26.7829 54.0881 27.257 53.8438 27.5301 53.4C27.9485 52.7202 27.7365 51.8298 27.0566 51.4115Z" fill="#47AAE3"/>
</g>
<defs>
<clipPath id="clip0">
<rect width="74" height="74" fill="white"/>
</clipPath>
</defs>
</svg>
