<svg width="55" height="55" viewBox="0 0 55 55" fill="none" xmlns="http://www.w3.org/2000/svg">
<path d="M47.1409 3.95264C46.4217 3.95264 45.8387 4.53562 45.8387 5.25481C45.8387 5.974 46.4217 6.55697 47.1409 6.55697C47.8601 6.55697 48.4431 5.974 48.4431 5.25481C48.4431 4.53562 47.8601 3.95264 47.1409 3.95264Z" fill="#47AAE3"/>
<path d="M42.6919 3.95264C41.9727 3.95264 41.3898 4.53562 41.3898 5.25481C41.3898 5.974 41.9727 6.55697 42.6919 6.55697C43.4111 6.55697 43.9941 5.974 43.9941 5.25481C43.9941 4.53562 43.4111 3.95264 42.6919 3.95264Z" fill="#47AAE3"/>
<path d="M38.2428 6.55697C38.962 6.55697 39.545 5.97397 39.545 5.25481C39.545 4.53564 38.962 3.95264 38.2428 3.95264C37.5237 3.95264 36.9407 4.53564 36.9407 5.25481C36.9407 5.97397 37.5237 6.55697 38.2428 6.55697Z" fill="#47AAE3"/>
<path d="M52.0241 0H2.97591C1.33504 0 0 1.33504 0 2.97591V45.2966C0 46.9373 1.33482 48.2722 2.97559 48.2722H2.98407L0.236006 51.0202C-0.0786328 51.335 -0.0786328 51.845 0.236006 52.1597C0.393271 52.3169 0.599521 52.3956 0.805664 52.3956C1.01181 52.3956 1.21806 52.3169 1.37532 52.1597L4.60356 48.9314L6.06848 50.3963L2.84023 53.6246C2.5256 53.9393 2.5256 54.4494 2.84023 54.764C2.9975 54.9213 3.20375 54.9999 3.40989 54.9999C3.61604 54.9999 3.82229 54.9213 3.97955 54.764L7.20919 51.5344C7.36259 51.6738 7.55616 51.7446 7.75038 51.7446C7.95652 51.7446 8.16277 51.6659 8.32004 51.5087L10.4933 49.3354C12.3441 50.3846 14.4814 50.9847 16.7565 50.9847C19.7157 50.9847 22.4423 49.9707 24.6076 48.2723H52.0244C53.6652 48.2723 55 46.9375 55 45.2967V18.6721C55 18.227 54.6394 17.8664 54.1943 17.8664C53.7493 17.8664 53.3887 18.227 53.3887 18.6721V45.2966C53.3887 46.0489 52.7767 46.6608 52.0244 46.6608H26.3136C27.9693 44.7835 29.082 42.4169 29.403 39.8084H42.4746C42.4768 39.8084 42.4787 39.8081 42.4808 39.8081H47.4665C47.9116 39.8081 48.2722 39.4475 48.2722 39.0024V34.0107C48.2722 33.5657 47.9116 33.2051 47.4665 33.2051H42.4748C42.4741 33.2051 42.4734 33.2052 42.4728 33.2052H28.4599C28.1789 32.5551 27.8457 31.9325 27.4648 31.3436H42.2576C42.7027 31.3436 43.0633 30.9829 43.0633 30.5379V13.1764C43.0633 12.7313 42.7027 12.3707 42.2576 12.3707H12.7424C12.2974 12.3707 11.9367 12.7313 11.9367 13.1764V15.5848C11.9367 16.0298 12.2974 16.3904 12.7424 16.3904C13.1873 16.3904 13.548 16.0298 13.548 15.5848V13.982H41.452V28.6096L31.493 18.7713C31.1778 18.46 30.6704 18.4616 30.3571 18.7749L25.2162 23.9166L22.358 21.0584C22.045 20.7455 21.5382 20.7437 21.223 21.0543L16.7083 25.5016C15.6337 25.5057 14.5732 25.6441 13.548 25.9102V19.3445C13.548 18.8995 13.1873 18.5389 12.7424 18.5389C12.2974 18.5389 11.9367 18.8995 11.9367 19.3445V26.4454C11.2283 26.7349 10.5443 27.0888 9.89345 27.5057C7.90056 28.7823 6.30459 30.5812 5.27817 32.7079C5.08481 33.1086 5.25282 33.5903 5.65361 33.7837C6.0544 33.9771 6.53587 33.809 6.72934 33.4083C8.57538 29.5837 12.5113 27.1123 16.7567 27.1123C22.8944 27.1123 27.8878 32.1056 27.8878 38.2434C27.8878 44.3805 22.8944 49.3733 16.7567 49.3733C10.6196 49.3733 5.62676 44.3805 5.62676 38.2434C5.62676 37.7472 5.66017 37.2452 5.72602 36.7515C5.78488 36.3105 5.47508 35.9052 5.034 35.8463C4.59239 35.7875 4.18773 36.0973 4.12887 36.5383C4.05356 37.1024 4.01543 37.6761 4.01543 38.2433C4.01543 40.5184 4.61549 42.6557 5.66457 44.5065L3.51022 46.6608H2.97559C2.22331 46.6608 1.61133 46.0489 1.61133 45.2966V10.5091H53.3887V14.9123C53.3887 15.3574 53.7493 15.718 54.1943 15.718C54.6394 15.718 55 15.3574 55 14.9123V2.97591C55 1.33504 53.665 0 52.0241 0V0ZM43.2805 34.8164H46.6608V38.1967H43.2805V34.8164ZM41.6689 34.8165V38.1971H29.4986C29.4944 37.0267 29.3315 35.8931 29.0305 34.8165H41.6689ZM30.9304 20.4805L40.2957 29.7322H31.0317L26.3555 25.056L30.9304 20.4805ZM18.8327 25.6708L21.7842 22.7634L28.7529 29.7322H26.2313C24.3361 27.6246 21.7497 26.1509 18.8327 25.6708ZM6.56659 45.8833C7.29212 46.8486 8.15139 47.7079 9.11668 48.4334L7.75049 49.7996L5.2004 47.2495L6.56659 45.8833ZM1.61133 8.89775V2.97591C1.61133 2.22342 2.22353 1.61133 2.97591 1.61133H52.0241C52.7766 1.61133 53.3887 2.22342 53.3887 2.97591V8.89775H1.61133Z" fill="#47AAE3"/>
<path d="M16.7572 47.5126C21.8685 47.5126 26.0268 43.3541 26.0268 38.2428C26.0268 33.1314 21.8685 28.9731 16.7572 28.9731C11.6458 28.9731 7.48743 33.1314 7.48743 38.2428C7.48743 43.3541 11.6458 47.5126 16.7572 47.5126ZM16.7572 30.5845C20.98 30.5845 24.4155 34.0199 24.4155 38.2428C24.4155 42.4657 20.98 45.9012 16.7572 45.9012C12.5343 45.9012 9.09876 42.4658 9.09876 38.2428C9.09876 34.0199 12.5343 30.5845 16.7572 30.5845Z" fill="#47AAE3"/>
</svg>
