<svg width="55" height="55" viewBox="0 0 55 55" fill="none" xmlns="http://www.w3.org/2000/svg">
<path d="M35.9814 14.8031H9.64272C9.19584 14.8031 8.83362 15.1653 8.83362 15.6122C8.83362 16.0591 9.19584 16.4213 9.64272 16.4213H35.9815C36.4284 16.4213 36.7906 16.0591 36.7906 15.6122C36.7906 15.1653 36.4283 14.8031 35.9814 14.8031Z" fill="#47AAE3"/>
<path d="M9.64272 10.8089H22.812C23.2589 10.8089 23.6211 10.4467 23.6211 9.99978C23.6211 9.5529 23.2589 9.19067 22.812 9.19067H9.64272C9.19584 9.19067 8.83362 9.5529 8.83362 9.99978C8.83362 10.4468 9.19584 10.8089 9.64272 10.8089Z" fill="#47AAE3"/>
<path d="M35.9814 19.776H9.64272C9.19584 19.776 8.83362 20.1382 8.83362 20.5851C8.83362 21.032 9.19584 21.3942 9.64272 21.3942H35.9815C36.4284 21.3942 36.7906 21.032 36.7906 20.5851C36.7905 20.1382 36.4283 19.776 35.9814 19.776Z" fill="#47AAE3"/>
<path d="M15.6425 49.3784H7.21344C5.82995 49.3784 4.70428 48.2528 4.70428 46.8693V4.12726C4.70428 2.74377 5.82995 1.6181 7.21344 1.6181H31.4968C31.5752 1.6181 31.6525 1.62529 31.7288 1.63561V6.68164C31.7288 8.95748 33.5803 10.8089 35.8561 10.8089H40.902C40.9124 10.8854 40.9195 10.9626 40.9195 11.041V24.8191C40.9195 25.2659 41.2817 25.6282 41.7286 25.6282C42.1755 25.6282 42.5377 25.2659 42.5377 24.8191V11.0411C42.5377 10.1536 42.192 9.31917 41.5645 8.6915L33.8462 0.973242C33.2187 0.345684 32.3843 0 31.4968 0H7.21344C4.9376 0 3.08618 1.85152 3.08618 4.12726V46.8693C3.08618 49.1451 4.93771 50.9965 7.21344 50.9965H15.6425C16.0894 50.9965 16.4516 50.6343 16.4516 50.1874C16.4516 49.7405 16.0894 49.3784 15.6425 49.3784ZM39.7754 9.1908H35.8562C34.4727 9.1908 33.347 8.06513 33.347 6.68164V2.76246L39.7754 9.1908Z" fill="#47AAE3"/>
<path d="M51.6654 39.6096L44.8099 28.0381C44.3103 27.1944 43.223 26.9155 42.3789 27.4156L40.7114 28.4036C39.417 29.1703 38.8699 30.722 39.3143 32.0972C38.7525 32.3007 38.1366 32.2975 37.5694 32.0782C36.2528 31.664 35.2518 30.8308 33.5987 31.2488C30.7918 31.9635 30.8771 31.9277 30.6231 32.0148C28.9796 31.079 27.9916 30.8006 26.2469 31.4755L24.6916 32.0767C23.9716 32.355 23.1782 32.289 22.5128 31.8948L22.0884 31.6446C22.2955 30.4036 21.7452 29.0941 20.5798 28.4038C20.5798 28.4038 20.5798 28.4038 20.5797 28.4037L18.9123 27.4158C18.0706 26.9173 16.98 27.1963 16.4814 28.0381L9.62572 39.6097C9.1261 40.4532 9.40411 41.5408 10.248 42.0407L11.9154 43.0285C12.42 43.3275 12.9745 43.4696 13.5223 43.4696C14.1332 43.4696 14.7356 43.2926 15.2505 42.9591L15.5981 43.1642L14.8644 44.1861C13.9901 45.404 14.2678 47.0976 15.486 47.9721C16.0493 48.3764 16.757 48.5611 17.4889 48.4461C17.605 49.1249 17.9769 49.7602 18.5791 50.1927C19.1447 50.5987 19.8492 50.7836 20.5823 50.6681C20.6988 51.3464 21.0704 51.9812 21.6723 52.4133C22.4812 52.9939 23.4869 53.0611 24.3249 52.7031C24.5083 53.1794 24.827 53.6096 25.2716 53.9288C26.4326 54.7621 28.0319 54.5448 28.934 53.4652L30.8838 54.6202C32.1731 55.3843 33.8368 54.9596 34.6013 53.6688C34.7968 53.3388 34.9181 52.9791 34.9625 52.6095L34.9669 52.6122C36.2543 53.3746 37.9217 52.9477 38.6844 51.6606C38.9053 51.2877 39.0263 50.8833 39.0558 50.478C40.1906 50.7633 41.4273 50.2867 42.0536 49.2297C42.2591 48.8829 42.3782 48.5083 42.4174 48.1314C43.6337 48.6086 45.0552 48.1474 45.742 46.9881C46.1115 46.3645 46.216 45.6345 46.0363 44.9322C45.9335 44.5305 45.7444 44.1658 45.4849 43.8578L46.5595 43.2299C47.4686 43.6031 48.5061 43.5434 49.3756 43.0284L51.0428 42.0406C51.8867 41.541 52.1654 40.4536 51.6654 39.6096ZM12.7402 41.6364L11.0728 40.6485C10.9987 40.6045 10.9741 40.5085 11.0179 40.4344L17.8736 28.8626C17.9177 28.7881 18.0141 28.764 18.0878 28.8078L19.7551 29.7955C20.4959 30.2346 20.7278 31.1848 20.2968 31.9122L14.8568 41.0946C14.4226 41.8276 13.4732 42.0705 12.7402 41.6364ZM16.4296 46.6575C15.9383 46.3048 15.8259 45.6214 16.1789 45.1298L17.2573 43.6276C17.6008 43.149 18.2854 43.0181 18.785 43.3768C19.2754 43.7288 19.3879 44.414 19.036 44.9044L17.9575 46.4066C17.6054 46.8972 16.9198 47.0093 16.4296 46.6575ZM19.5228 48.8783C19.0324 48.5261 18.92 47.8407 19.272 47.3504L20.3504 45.8483C20.3504 45.8483 20.3504 45.8483 20.3504 45.8482C20.3504 45.8482 20.3504 45.8481 20.3505 45.8481L21.5406 44.1904C21.7112 43.9529 21.964 43.7958 22.2525 43.7486C22.3125 43.7387 22.3725 43.7338 22.4321 43.7338C22.6592 43.7338 22.8802 43.8045 23.0684 43.9396C23.3058 44.1101 23.4628 44.3628 23.5101 44.6513C23.5575 44.94 23.4897 45.2297 23.3191 45.4672L21.0505 48.6273C20.6979 49.1188 20.0144 49.2313 19.5228 48.8783ZM22.616 51.0988C22.1259 50.7469 22.0133 50.062 22.3647 49.5717C22.3648 49.5715 22.365 49.5713 22.3651 49.571L24.6337 46.411C24.9855 45.9207 25.6713 45.8082 26.1615 46.1601C26.6519 46.5121 26.7643 47.1974 26.4123 47.6878L25.4044 49.0919C25.4044 49.0919 25.4044 49.0919 25.4043 49.092L24.1437 50.848C23.7917 51.3383 23.1065 51.451 22.616 51.0988ZM26.2153 52.6143C25.7252 52.2624 25.6126 51.5778 25.9637 51.0874L26.7188 50.0357C27.0707 49.5453 27.7564 49.4331 28.2465 49.7849C28.7368 50.1368 28.8494 50.8223 28.4974 51.3127L27.743 52.3634C27.391 52.8539 26.7055 52.9664 26.2153 52.6143ZM44.3502 46.1634C44.0423 46.683 43.3694 46.8553 42.8497 46.5475C41.9697 46.0262 36.2931 42.6632 35.6879 42.3046C35.3033 42.0769 34.8071 42.2037 34.5794 42.5882C34.3517 42.9727 34.4785 43.4689 34.863 43.6967L40.2774 46.9044L40.2775 46.9045C40.7973 47.2124 40.9707 47.8832 40.6616 48.4051C40.3536 48.9249 39.6804 49.0969 39.1609 48.7893C37.1584 47.603 35.5323 46.6396 33.7436 45.5799C33.359 45.3522 32.8629 45.479 32.6352 45.8635C32.4074 46.2479 32.5343 46.7442 32.9188 46.972L36.9082 49.3355L36.909 49.336C37.4292 49.6448 37.6008 50.3154 37.2924 50.8361C36.9845 51.356 36.3115 51.5282 35.7916 51.2203L33.6506 49.952C33.6504 49.9518 33.6501 49.9517 33.6499 49.9515C33.6497 49.9514 33.6494 49.9513 33.6492 49.9512L32.0868 49.0254C31.7022 48.7976 31.206 48.9245 30.9783 49.309C30.7506 49.6935 30.8774 50.1898 31.2619 50.4175L32.8247 51.3434C32.8249 51.3435 32.8251 51.3437 32.8253 51.3438C33.3451 51.6517 33.5185 52.3224 33.2094 52.8443C32.9015 53.3641 32.2285 53.5363 31.7086 53.2284L29.8856 52.1485C30.6671 50.9426 30.3698 49.3175 29.1902 48.4708C28.8438 48.2222 28.4581 48.0675 28.0635 48.001C28.482 46.8819 28.1212 45.5755 27.1051 44.8461C26.5035 44.414 25.7833 44.2648 25.1035 44.3714C24.9825 43.664 24.5957 43.0444 24.0121 42.6256C22.9144 41.8378 21.4228 41.9892 20.5014 42.9213C20.3142 42.5925 20.0557 42.2975 19.7287 42.0628C18.8166 41.4082 17.6324 41.402 16.7294 41.9534L16.3587 41.7346L21.4473 33.1453L21.6895 33.2881C22.7594 33.9219 24.065 34.0541 25.275 33.5861L26.8303 32.9849C27.7203 32.6409 28.2111 32.6185 29.0914 33.0339C28.5154 33.681 28.1735 34.5306 28.1735 35.4462V39.0336C28.1735 39.9864 28.9481 40.7621 29.9002 40.7628H29.9026C30.8575 40.7628 31.7556 40.391 32.4312 39.7158C32.825 39.3222 33.1157 38.853 33.2899 38.3408C34.3346 38.9595 42.9656 44.0705 43.9662 44.6634C44.2179 44.8125 44.3965 45.0506 44.469 45.334C44.5415 45.6171 44.4993 45.9117 44.3502 46.1634ZM50.2184 40.6485L48.5509 41.6364C47.8178 42.0704 46.8685 41.8273 46.4345 41.0947L43.8847 36.7908C43.6569 36.4064 43.1604 36.2795 42.7762 36.507C42.3918 36.7348 42.2648 37.2311 42.4924 37.6155L45.0422 41.9195C45.0902 42.0005 45.1423 42.0775 45.1962 42.1526L44.4873 42.5667C44.344 42.6516 44.2062 42.745 44.0744 42.8465L33.0827 36.3373C32.5442 36.0186 31.8614 36.4071 31.8614 37.0334C31.8529 37.0817 31.945 37.9134 31.2872 38.5709C30.9173 38.9406 30.4255 39.1442 29.9025 39.1442C29.902 39.1442 29.9016 39.1442 29.9012 39.1442C29.8407 39.1442 29.7915 39.0944 29.7915 39.0332V35.4458C29.7915 34.5087 30.4362 33.718 31.3082 33.4973L33.9954 32.8172C34.9705 32.5708 35.5217 33.0914 36.9817 33.5856C37.9952 33.9777 39.0972 33.9535 40.0754 33.5357L40.5638 34.3601C40.7916 34.7448 41.2879 34.8715 41.6722 34.6439C42.0567 34.4162 42.1837 33.9199 41.9561 33.5354L40.9942 31.912C40.559 31.1774 40.8015 30.2308 41.5359 29.7954L43.2033 28.8077C43.2762 28.7644 43.3725 28.7865 43.4176 28.8626L50.2731 40.4342C50.3173 40.5088 50.293 40.6043 50.2184 40.6485Z" fill="#47AAE3"/>
</svg>
