<svg width="19" height="19" viewBox="0 0 19 19" fill="none" xmlns="http://www.w3.org/2000/svg">
<g clip-path="url(#clip0)">
<path d="M11.3769 12.5522C10.9289 13.0012 10.332 13.2482 9.69777 13.2482C9.06373 13.2482 8.46679 13.0012 8.01873 12.5522L4.65413 9.18777C4.20535 8.73956 3.95834 8.14278 3.95834 7.50859C3.95834 6.8744 4.20535 6.27761 4.65413 5.82955C5.1022 5.38062 5.69913 5.13361 6.33332 5.13361C6.96736 5.13361 7.56429 5.38062 8.01235 5.82955L9.69777 7.5141L14.3505 2.86156C12.8304 1.56564 10.8624 0.779541 8.70829 0.779541C3.89891 0.779541 0 4.67845 0 9.48769C0 14.2971 3.89891 18.196 8.70829 18.196C13.5175 18.196 17.4164 14.2971 17.4164 9.48769C17.4164 8.58765 17.2796 7.71994 17.0262 6.90296L11.3769 12.5522Z" fill="#E8E8E8"/>
<path d="M9.69737 11.6647C9.49472 11.6647 9.29207 11.5872 9.13769 11.4328L5.77324 8.06822C5.46361 7.75874 5.46361 7.25835 5.77324 6.94886C6.08272 6.63924 6.58297 6.63924 6.89259 6.94886L9.69737 9.75364L17.6481 1.80304C17.9576 1.49355 18.4578 1.49355 18.7675 1.80304C19.077 2.11266 19.077 2.61291 18.7675 2.92254L10.257 11.4328C10.1028 11.5872 9.90002 11.6647 9.69737 11.6647Z" fill="#47AAE3"/>
</g>
<defs>
<clipPath id="clip0">
<rect width="19" height="19" fill="white"/>
</clipPath>
</defs>
</svg>
