<svg width="74" height="74" fill="none" xmlns="http://www.w3.org/2000/svg"><g clip-path="url(#clip0)" fill="#47AAE3"><path d="M73.108 33.388c-.799-1.187-1.964-2.122-2.815-2.804-.25-.201-.594-.477-.678-.57a44.54 44.54 0 00-.609-.71c-.467-.538-.996-1.147-1.045-1.422-.013-.072.103-.401.782-1.054 2.195-2.108.541-4.83-.446-6.457-.246-.405-.601-.99-.72-1.305.251-.488.57-1.277.3-2.17-.34-1.125-1.434-1.82-2.458-2.35-.135-.07-.254-.141-.37-.21-.433-.26-1.24-.742-2.23-.256-.562.277-1.01.78-1.801 1.803-.146.189-.467.472-.807.771a26.49 26.49 0 00-.763.69 1.446 1.446 0 001.992 2.096c.227-.216.458-.42.682-.616.446-.394.868-.765 1.183-1.172.234-.303.408-.519.538-.673.075.043.157.088.246.134.533.276.805.471.939.585-.026.052-.06.12-.108.206-.717 1.295.108 2.654.906 3.967.43.708.874 1.44 1.044 2.056.15.548.002.69-.13.817-3.012 2.893-1.295 4.869.085 6.456.181.209.373.43.572.667.25.3.601.582 1.087.972 1.874 1.502 2.913 2.613 2.54 3.657-.865-.11-2.83-.997-3.615-1.674-.883-.76-3.24-2.223-6.042.623-2.198 2.232-3.14 4.857-2.52 7.02.354 1.231 1.217 2.123 2.309 2.384 1.166.278 2.421-.193 3.443-1.294.2-.214 1.037-.352 1.615.03.91.598.322 2.214.027 2.88-.742 1.677-.076 3.007.41 3.978.523 1.044.868 1.733.09 3.143-.656 1.185-1.233 1.516-1.473 1.582.282-.813.16-1.456.04-2.079a9.775 9.775 0 01-.178-1.305 1.932 1.932 0 00-1.101-1.652c-1.361-.665-3.4.227-3.99.628-.016.01-.06.041-.2.013a1.178 1.178 0 01-.556-.316c-.193-1.185-1.119-2.084-2.36-2.264a3.156 3.156 0 00-3.392 1.952c-.6 1.495-.55 2.679-.477 3.455h-.098c-1.719 0-2.49.712-2.923 1.453-.933-.202-1.928-.006-2.814.169-.118.023-.26.051-.397.076-.79-2.063-2.318-2.74-3.586-2.657-1.661.11-3.043 1.448-3.214 3.111-.057.559-.19.754-.225.796a.432.432 0 01-.166-.026c-2.187-1.196-3.6-.16-4.36.396-.154.113-.384.282-.482.316-.956-.138-1.78-.535-2.67-1.286a1.445 1.445 0 10-1.864 2.21c1.316 1.11 2.633 1.727 4.143 1.94.14.02.274.03.403.03.982 0 1.691-.52 2.18-.878.612-.449.69-.507 1.269-.189.672.37 1.832.605 2.891.05.695-.364 1.564-1.191 1.757-3.063.028-.276.308-.508.53-.522.311-.026.658.52.849 1.314.165.69.777 1.422 2 1.422h.02c.461-.003.956-.1 1.48-.204.542-.106 1.359-.267 1.676-.172 1.424.426 2.436.01 3.008-1.24l.052-.113c.066-.017.202-.041.443-.041.938 0 1.893-.096 2.52-.792.63-.698.541-1.543.477-2.16-.064-.621-.138-1.325.26-2.32a.238.238 0 01.137-.145.313.313 0 01.095-.023c.17 1.068 1.142 1.882 1.95 2.262 1.136.536 2.328.477 3.268-.162.131-.086.408-.193.676-.27.043.296.09.543.13.75.098.514.09.536.057.616a2.785 2.785 0 001.397 3.544c1.387.658 3.62.318 5.347-2.807 1.515-2.742.583-4.604-.034-5.836-.433-.864-.524-1.126-.352-1.514 1.829-4.134-.364-5.993-1.08-6.465-1.659-1.093-4.097-.902-5.323.418-.364.391-.614.453-.648.45-.033-.015-.179-.16-.245-.538-.155-.887.247-2.41 1.84-4.027 1.206-1.226 1.698-.802 2.093-.461 1.122.966 4.346 2.666 6.254 2.337.681-.118 1.23-.479 1.552-1.018.967-1.54.89-3.295-.219-4.943z"/><path d="M37.294 32.217c1.315-1.246 1.866-1.653 2.875-1.333.61.193.674.334.747.497.357.786 1.12 1.592 2.734.968.911-.352 1.554-.586 1.92-.698.312.184.734.334 1.388.389 3.036.25 3.796-1.081 4.27-2.35.188-.504.243-.587.447-.689.04-.02.089-.04.143-.064a1.445 1.445 0 10-1.12-2.665c-.12.05-.22.096-.307.14-1.256.621-1.64 1.65-1.87 2.265-.053.142-.132.352-.179.42-.05.023-.326.13-1.145.061a1.896 1.896 0 01-.17-.02c-.907-.76-1.742-.515-3.906.316-.383-.5-.99-.981-2.078-1.326-2.724-.865-4.466.785-5.737 1.99-1.586 1.502-2.73 2.587-5.813.99-.69-.358-1.443-.314-2.067.12-.36.25-.602.576-.815.864-.32.432-.428.534-.576.546-.3.025-.546.111-.739.202a4.82 4.82 0 01-.227-.254c-.508-.604-1.176-.731-1.88-.67.433-1.232.717-2.54.717-3.849 0-5.567-4.498-10.127-10.037-10.186l-.054-.001h-.108C8.17 17.94 3.67 22.5 3.67 28.068c0 2.457 1.003 4.91 2.102 6.863-1.402.691-1.386 2.173-1.376 2.991.012 1.066-.02 1.359-.882 1.693-.416.16-.734.504-.863.931-.247.823-.29 1.519.307 2.24l.013.016c.023.067.104.356.104 1.144 0 .833.154 1.595.278 2.207.08.396.2.987.156 1.18-.062.054-.414.304-1.69.464a2.008 2.008 0 00-1.4.807c-.633.874-.416 1.993-.206 3.075.097.5.207 1.067.189 1.431-.084 1.648 1.193 2.138 1.674 2.322.453.174.753.289.93 1.534.192 1.343 1.545 2.363 3.076 2.363.08 0 .162-.003.244-.009 1.376-.098 2.981-1.144 3.017-3.766.467-.088 1.239-.27 1.794-1.014.527-.706.698-1.668.552-3.117-.086-.86.28-1.31.567-1.356.24-.037.41.35.484.692.413 1.93 1.681 3.986 3.582 4.228 1.035.132 2.527-.228 3.768-2.682a.52.52 0 01.07-.032 1.445 1.445 0 00-1.006-2.71c-.743.276-1.307.765-1.632 1.414-.444.887-.774 1.096-.853 1.136-.24-.093-.857-.815-1.102-1.96-.504-2.347-2.3-3.171-3.758-2.942-1.645.258-3.254 1.923-2.996 4.5.053.534.035.84.012.998l-.09.017c-.565.102-2.283.412-2.283 2.74 0 .618-.155.913-.252.954-.101.042-.264.004-.36-.044-.422-2.565-1.764-3.259-2.55-3.574-.025-.573-.138-1.15-.24-1.674a22.211 22.211 0 01-.107-.581c1.448-.273 2.364-.758 2.922-1.533.794-1.105.543-2.343.322-3.435-.109-.537-.221-1.09-.221-1.634 0-1.047-.112-1.718-.308-2.213 1.66-1.17 1.64-2.926 1.629-3.844a9.133 9.133 0 01.002-.468c.023-.011.042-.024.064-.036l.176.24c.623.834 3.85 4.997 6.26 4.997 2.408 0 5.636-4.163 6.258-4.998a25.569 25.569 0 001.588-2.397c.277-.066.543-.137.79-.203.244-.066.546-.147.773-.195.52.54 1.191 1.036 2.014 1.036.38 0 .793-.106 1.237-.363 1.234-.167 1.94-.97 2.355-1.515 4.491 2.02 6.883-.246 8.49-1.768zm-23.506 7.496c-.585-.212-2.31-1.56-4.134-4.08-1.966-2.713-3.093-5.47-3.093-7.566 0-3.997 3.234-7.27 7.21-7.296h.035c3.975.026 7.21 3.299 7.21 7.296 0 1.475-.561 3.277-1.577 5.162l-.005.008a21.57 21.57 0 01-1.512 2.396c-1.824 2.52-3.549 3.868-4.134 4.08z"/><path d="M13.788 23.731a4.341 4.341 0 00-4.336 4.336 4.341 4.341 0 004.336 4.337 4.341 4.341 0 004.337-4.337 4.341 4.341 0 00-4.337-4.336zm0 5.782a1.447 1.447 0 01-1.445-1.446 1.446 1.446 0 012.891 0c0 .798-.649 1.446-1.446 1.446zm42.61-3.931a1.443 1.443 0 002.036-.185v-.001a1.445 1.445 0 10-2.036.186zM27.057 51.411h-.001a1.445 1.445 0 10-1.516 2.461 1.445 1.445 0 001.517-2.46z"/></g><defs><clipPath id="clip0"><path fill="#fff" d="M0 0h74v74H0z"/></clipPath></defs></svg>