<svg width="20" height="18" fill="none" xmlns="http://www.w3.org/2000/svg"><path d="M17.411.177h-1.764V1.94a.59.59 0 01-1.177 0V.177H5.058V1.94a.59.59 0 01-1.176 0V.177H2.117C1.235.177.587.94.587 1.94v2.12h18.824V1.94c0-1-1.058-1.764-2-1.764zM.588 5.294V16.06c0 1.059.647 1.765 1.588 1.765H17.47c.941 0 2-.765 2-1.765V5.294H.588zm5.235 9.883H4.411a.464.464 0 01-.47-.471v-1.47c0-.236.176-.471.47-.471h1.471c.235 0 .47.176.47.47v1.47c-.058.295-.235.472-.529.472zm0-5.295H4.411a.464.464 0 01-.47-.47v-1.47c0-.236.176-.471.47-.471h1.471c.235 0 .47.176.47.47v1.47c-.058.295-.235.471-.529.471zm4.706 5.295H9.06a.464.464 0 01-.471-.471v-1.47c0-.236.176-.471.47-.471h1.471c.235 0 .47.176.47.47v1.47c0 .295-.176.472-.47.472zm0-5.295H9.06a.464.464 0 01-.471-.47v-1.47c0-.236.176-.471.47-.471h1.471c.235 0 .47.176.47.47v1.47c0 .295-.176.471-.47.471zm4.706 5.295h-1.47a.464.464 0 01-.471-.471v-1.47c0-.236.176-.471.47-.471h1.471c.235 0 .47.176.47.47v1.47c0 .295-.176.472-.47.472zm0-5.295h-1.47a.464.464 0 01-.471-.47v-1.47c0-.236.176-.471.47-.471h1.471c.235 0 .47.176.47.47v1.47c0 .295-.176.471-.47.471z" fill="#A0A0A0"/></svg>