<svg width="19" height="19" fill="none" xmlns="http://www.w3.org/2000/svg"><g clip-path="url(#clip0)"><path d="M11.377 12.552a2.357 2.357 0 01-1.68.696 2.357 2.357 0 01-1.678-.696L4.654 9.188a2.358 2.358 0 01-.696-1.68c0-.634.247-1.23.696-1.678a2.357 2.357 0 011.68-.696c.633 0 1.23.247 1.678.696l1.686 1.684 4.652-4.652A8.667 8.667 0 008.709.78a8.708 8.708 0 108.318 6.123l-5.65 5.65z" fill="#E8E8E8"/><path d="M9.697 11.665a.79.79 0 01-.56-.232L5.774 8.068a.79.79 0 111.12-1.12l2.804 2.806 7.951-7.951a.79.79 0 111.12 1.12l-8.511 8.51a.789.789 0 01-.56.232z" fill="#47AAE3"/></g><defs><clipPath id="clip0"><path fill="#fff" d="M0 0h19v19H0z"/></clipPath></defs></svg>