<svg width="703" height="301" fill="none" xmlns="http://www.w3.org/2000/svg"><path d="M54.704 213.538v63.446H50.67v-59.779H4.46v59.779H.426v-63.446h54.278zm81.896 0v63.446h-3.912v-17.359c-2.363 5.542-5.99 9.902-10.88 13.081-4.808 3.097-10.309 4.645-16.503 4.645-5.787 0-11.043-1.345-15.77-4.034-4.727-2.771-8.476-6.601-11.247-11.491-2.69-4.89-4.034-10.432-4.034-16.626 0-6.194 1.345-11.736 4.034-16.626 2.771-4.89 6.52-8.679 11.247-11.369 4.727-2.771 9.983-4.156 15.77-4.156 6.112 0 11.573 1.548 16.381 4.645 4.89 3.097 8.517 7.376 10.88 12.836v-16.992h4.034zm-31.173 60.146c5.135 0 9.739-1.182 13.814-3.545 4.157-2.445 7.416-5.828 9.78-10.147 2.363-4.319 3.545-9.25 3.545-14.792s-1.182-10.432-3.545-14.67c-2.364-4.319-5.623-7.661-9.78-10.024-4.075-2.445-8.679-3.668-13.814-3.668-5.134 0-9.78 1.223-13.936 3.668-4.075 2.363-7.294 5.705-9.658 10.024-2.363 4.238-3.545 9.128-3.545 14.67s1.182 10.473 3.545 14.792c2.364 4.319 5.583 7.702 9.658 10.147 4.156 2.363 8.802 3.545 13.936 3.545zm85.555-60.635c5.95 0 11.288 1.385 16.015 4.156 4.808 2.771 8.516 6.602 11.124 11.492 2.69 4.889 4.035 10.431 4.035 16.625 0 6.113-1.345 11.614-4.035 16.504-2.608 4.89-6.275 8.72-11.002 11.491-4.645 2.689-9.943 4.034-15.892 4.034-6.194 0-11.654-1.467-16.381-4.401-4.646-3.015-8.15-7.253-10.514-12.714V300.7h-4.156v-55.378c0-6.194 1.304-11.736 3.912-16.625 2.689-4.89 6.357-8.721 11.002-11.492 4.646-2.771 9.943-4.156 15.892-4.156zm0 60.635c5.216 0 9.862-1.182 13.937-3.545 4.156-2.445 7.375-5.828 9.657-10.147 2.364-4.319 3.545-9.209 3.545-14.67 0-5.46-1.181-10.35-3.545-14.67-2.282-4.319-5.501-7.701-9.657-10.146-4.075-2.445-8.721-3.668-13.937-3.668-5.215 0-9.861 1.223-13.936 3.668-3.993 2.363-7.131 5.705-9.413 10.024-2.282 4.238-3.423 9.128-3.423 14.67s1.141 10.473 3.423 14.792c2.282 4.319 5.42 7.702 9.413 10.147 4.075 2.363 8.721 3.545 13.936 3.545zm106.637-60.146v63.446h-3.912v-17.359c-2.364 5.542-5.99 9.902-10.88 13.081-4.809 3.097-10.31 4.645-16.504 4.645-5.786 0-11.043-1.345-15.77-4.034-4.727-2.771-8.475-6.601-11.246-11.491-2.69-4.89-4.035-10.432-4.035-16.626 0-6.194 1.345-11.736 4.035-16.626 2.771-4.89 6.519-8.679 11.246-11.369 4.727-2.771 9.984-4.156 15.77-4.156 6.113 0 11.573 1.548 16.382 4.645 4.889 3.097 8.516 7.376 10.88 12.836v-16.992h4.034zm-31.173 60.146c5.134 0 9.739-1.182 13.814-3.545 4.156-2.445 7.416-5.828 9.779-10.147 2.364-4.319 3.546-9.25 3.546-14.792s-1.182-10.432-3.546-14.67c-2.363-4.319-5.623-7.661-9.779-10.024-4.075-2.445-8.68-3.668-13.814-3.668-5.135 0-9.78 1.223-13.937 3.668-4.075 2.363-7.294 5.705-9.657 10.024-2.364 4.238-3.545 9.128-3.545 14.67s1.181 10.473 3.545 14.792c2.363 4.319 5.582 7.702 9.657 10.147 4.157 2.363 8.802 3.545 13.937 3.545zm125.53-60.146v63.446h-3.79v-56.478l-29.095 47.921h-1.956l-28.85-47.554v56.111h-3.912v-63.446h3.79l30.073 49.999 30.073-49.999h3.667zm51.625 63.813c-5.868 0-11.206-1.345-16.015-4.034-4.727-2.771-8.435-6.601-11.124-11.491-2.69-4.89-4.034-10.432-4.034-16.626 0-6.194 1.344-11.736 4.034-16.626 2.689-4.89 6.397-8.679 11.124-11.369 4.809-2.771 10.147-4.156 16.015-4.156 5.949 0 11.287 1.385 16.014 4.156 4.727 2.69 8.435 6.479 11.125 11.369 2.689 4.89 4.034 10.432 4.034 16.626 0 6.194-1.345 11.736-4.034 16.626-2.69 4.89-6.398 8.72-11.125 11.491-4.727 2.689-10.065 4.034-16.014 4.034zm0-3.667c5.134 0 9.739-1.182 13.814-3.545 4.156-2.445 7.416-5.828 9.78-10.147 2.363-4.319 3.545-9.25 3.545-14.792s-1.182-10.432-3.545-14.67c-2.364-4.319-5.624-7.661-9.78-10.024-4.075-2.445-8.68-3.668-13.814-3.668-5.135 0-9.78 1.223-13.936 3.668-4.075 2.363-7.295 5.705-9.658 10.024-2.364 4.238-3.545 9.128-3.545 14.67s1.181 10.473 3.545 14.792c2.363 4.319 5.583 7.702 9.658 10.147 4.156 2.363 8.801 3.545 13.936 3.545zm51.699-60.146h4.034v29.706h45.721v-29.706h4.034v63.446h-4.034v-30.195h-45.721v30.195H495.3v-63.446zm105.38 63.813c-5.868 0-11.206-1.345-16.015-4.034-4.727-2.771-8.435-6.601-11.124-11.491-2.69-4.89-4.034-10.432-4.034-16.626 0-6.194 1.344-11.736 4.034-16.626 2.689-4.89 6.397-8.679 11.124-11.369 4.809-2.771 10.147-4.156 16.015-4.156 5.949 0 11.287 1.385 16.014 4.156 4.727 2.69 8.435 6.479 11.125 11.369 2.689 4.89 4.034 10.432 4.034 16.626 0 6.194-1.345 11.736-4.034 16.626-2.69 4.89-6.398 8.72-11.125 11.491-4.727 2.689-10.065 4.034-16.014 4.034zm0-3.667c5.134 0 9.739-1.182 13.814-3.545 4.156-2.445 7.416-5.828 9.78-10.147 2.363-4.319 3.545-9.25 3.545-14.792s-1.182-10.432-3.545-14.67c-2.364-4.319-5.624-7.661-9.78-10.024-4.075-2.445-8.68-3.668-13.814-3.668-5.135 0-9.78 1.223-13.937 3.668-4.074 2.363-7.294 5.705-9.657 10.024-2.364 4.238-3.545 9.128-3.545 14.67s1.181 10.473 3.545 14.792c2.363 4.319 5.583 7.702 9.657 10.147 4.157 2.363 8.802 3.545 13.937 3.545zm87.273-29.34c9.698 1.549 14.548 6.805 14.548 15.77 0 5.542-1.997 9.739-5.991 12.592-3.911 2.852-9.861 4.278-17.848 4.278h-26.283v-63.446h25.672c6.927 0 12.347 1.385 16.259 4.156 3.912 2.771 5.868 6.765 5.868 11.98 0 3.831-1.1 7.009-3.301 9.536-2.119 2.445-5.093 4.156-8.924 5.134zm-31.54-1.222h21.638c5.786 0 10.228-1.1 13.325-3.301 3.179-2.2 4.768-5.46 4.768-9.78 0-4.319-1.589-7.579-4.768-9.78-3.097-2.2-7.539-3.3-13.325-3.3h-21.638v26.161zm22.372 30.439c6.52 0 11.409-1.1 14.669-3.3 3.342-2.201 5.012-5.624 5.012-10.269 0-4.645-1.507-8.068-4.523-10.269-2.934-2.2-7.579-3.301-13.936-3.301h-23.594v27.139h22.372z" fill="#fff"/><path fill-rule="evenodd" clip-rule="evenodd" d="M16.53 174.138l-.004.003-.198.164c-3.449 2.865-7.768 6.453-15.906 6.453v-7.292c5.5 0 8.093-2.153 11.368-4.872l.079-.065.229-.19c1.468-1.22 3.242-2.694 5.455-3.816 2.426-1.229 5.263-1.993 8.876-1.993 3.587 0 6.426.766 8.86 2.005 2.314 1.179 4.147 2.74 5.674 4.04l.051.044.005.004c3.21 2.713 5.87 4.911 11.417 4.911 5.464 0 8.066-2.129 11.298-4.812l.132-.11.044-.037c1.526-1.3 3.36-2.861 5.674-4.04 2.433-1.239 5.272-2.005 8.86-2.005 3.587 0 6.426.766 8.859 2.005 2.314 1.179 4.148 2.74 5.674 4.04l.052.044.006.005c3.209 2.712 5.869 4.91 11.416 4.91 5.464 0 8.065-2.129 11.298-4.812l.131-.109.044-.038c1.527-1.3 3.361-2.861 5.675-4.04 2.433-1.239 5.272-2.005 8.859-2.005 3.587 0 6.426.766 8.859 2.005 2.315 1.179 4.148 2.74 5.675 4.04l.051.044.006.004c3.209 2.713 5.869 4.911 11.416 4.911 5.51 0 8.107-2.165 11.304-4.868l.047-.039.009-.008.052-.044c1.527-1.3 3.36-2.861 5.674-4.04 2.434-1.239 5.273-2.005 8.86-2.005 3.587 0 6.426.766 8.859 2.005 2.314 1.179 4.148 2.74 5.675 4.04l.051.044.005.004c3.21 2.713 5.87 4.911 11.417 4.911 5.51 0 8.107-2.165 11.304-4.868l.046-.039.01-.008.052-.044c1.526-1.3 3.36-2.861 5.674-4.04 2.433-1.239 5.272-2.005 8.859-2.005 3.587 0 6.427.766 8.86 2.005 2.314 1.179 4.147 2.74 5.674 4.04l.052.044.004.003c3.21 2.713 5.87 4.912 11.418 4.912 5.464 0 8.065-2.129 11.297-4.812l.115-.095.035-.029.026-.023c1.527-1.3 3.36-2.861 5.675-4.04 2.433-1.239 5.272-2.005 8.859-2.005 3.587 0 6.426.766 8.859 2.005 2.314 1.179 4.148 2.74 5.675 4.04l.051.044.006.005c3.209 2.712 5.869 4.91 11.416 4.91 5.464 0 8.066-2.129 11.298-4.812l.114-.095.035-.029.026-.023c1.527-1.3 3.361-2.861 5.675-4.04 2.433-1.239 5.272-2.005 8.859-2.005 3.587 0 6.426.766 8.86 2.005 2.314 1.179 4.147 2.74 5.674 4.04l.052.044a.043.043 0 00.007.006c3.208 2.712 5.868 4.909 11.415 4.909 5.463 0 8.065-2.129 11.297-4.812l.115-.095.034-.029.027-.023c1.527-1.3 3.36-2.861 5.674-4.04 2.434-1.239 5.273-2.005 8.86-2.005 3.587 0 6.426.766 8.859 2.005 2.314 1.179 4.148 2.74 5.675 4.04l.051.044.006.005c3.209 2.712 5.869 4.91 11.416 4.91 5.464 0 8.066-2.129 11.298-4.812l.114-.095.034-.029.027-.023c1.527-1.3 3.361-2.861 5.675-4.04 2.433-1.239 5.272-2.005 8.859-2.005 3.587 0 6.426.766 8.86 2.005 2.314 1.179 4.147 2.74 5.674 4.04l.052.044.003.003c3.21 2.713 5.87 4.912 11.418 4.912 5.464 0 8.066-2.129 11.298-4.812l.115-.095.034-.029.027-.023c1.527-1.3 3.36-2.861 5.674-4.04 2.433-1.239 5.273-2.005 8.86-2.005 3.587 0 6.426.766 8.859 2.005 2.314 1.179 4.148 2.74 5.675 4.04l.051.044.003.002c3.21 2.714 5.87 4.913 11.419 4.913 5.464 0 8.066-2.129 11.298-4.812l.114-.095.034-.029.027-.023c1.527-1.3 3.361-2.861 5.675-4.04 2.433-1.239 5.272-2.005 8.859-2.005 3.587 0 6.426.766 8.86 2.005 2.314 1.179 4.147 2.74 5.674 4.04l.051.044.004.003c3.21 2.713 5.87 4.912 11.418 4.912 5.464 0 8.066-2.129 11.299-4.813l.148-.123.001-.001.153-.126.106-.089c1.485-1.232 3.278-2.721 5.54-3.848 2.403-1.197 5.208-1.935 8.761-1.935 3.587 0 6.426.766 8.859 2.005 2.314 1.178 4.147 2.74 5.674 4.04l.052.043.005.005c3.21 2.713 5.87 4.911 11.417 4.911 5.463 0 8.065-2.129 11.297-4.813l.115-.094.034-.029.027-.023c1.527-1.3 3.36-2.862 5.674-4.04 2.434-1.239 5.273-2.005 8.86-2.005 3.587 0 6.426.766 8.859 2.005 2.314 1.178 4.148 2.74 5.675 4.04l.051.043.008.007c3.208 2.712 5.868 4.909 11.414 4.909 5.464 0 8.066-2.129 11.298-4.813l.114-.094.035-.029.026-.023c1.527-1.3 3.361-2.862 5.675-4.04 2.433-1.239 5.272-2.005 8.859-2.005v7.293c-2.467 0-4.168.506-5.549 1.21-1.47.749-2.707 1.775-4.319 3.147l-.017.014-.166.138-.047.039c-3.461 2.874-7.774 6.456-15.909 6.456-8.276 0-12.658-3.704-16.115-6.627l-.024-.02c-1.612-1.372-2.849-2.398-4.318-3.147-1.382-.704-3.083-1.21-5.55-1.21-2.467 0-4.168.506-5.55 1.21-1.469.749-2.706 1.775-4.318 3.147l-.017.014-.214.177c-3.46 2.874-7.774 6.456-15.908 6.456-8.276 0-12.658-3.704-16.116-6.627l-.014-.012-.01-.008c-1.611-1.372-2.848-2.399-4.318-3.147-1.381-.704-3.082-1.21-5.549-1.21-2.464 0-4.151.493-5.51 1.17-1.445.719-2.651 1.701-4.24 3.02l-.152.127-.001.001-.148.122-.047.039c-3.461 2.874-7.775 6.456-15.91 6.456-8.276 0-12.657-3.704-16.115-6.627l-.024-.02c-1.612-1.372-2.849-2.398-4.318-3.147-1.382-.703-3.083-1.21-5.55-1.21-2.467 0-4.168.507-5.549 1.21-1.47.749-2.707 1.775-4.319 3.147l-.017.014-.166.138-.047.04c-3.461 2.873-7.774 6.455-15.909 6.455-8.276 0-12.658-3.704-16.116-6.627l-.024-.02c-1.611-1.372-2.848-2.398-4.318-3.147-1.381-.703-3.082-1.21-5.549-1.21-2.467 0-4.169.507-5.55 1.21-1.469.749-2.707 1.775-4.318 3.147l-.017.014-.166.138-.048.04c-3.461 2.873-7.774 6.455-15.909 6.455-8.276 0-12.657-3.704-16.115-6.627l-.024-.02c-1.612-1.372-2.849-2.398-4.318-3.147-1.382-.703-3.083-1.21-5.55-1.21-2.467 0-4.168.507-5.549 1.21-1.47.749-2.707 1.775-4.319 3.147l-.017.014-.166.138-.047.04c-3.461 2.873-7.774 6.455-15.909 6.455-8.276 0-12.658-3.704-16.116-6.627l-.014-.012-.009-.008c-1.612-1.372-2.849-2.398-4.319-3.147-1.381-.703-3.082-1.21-5.549-1.21-2.467 0-4.168.507-5.55 1.21-1.469.749-2.706 1.775-4.318 3.147l-.017.015-.166.137-.048.04c-3.46 2.873-7.774 6.455-15.908 6.455-8.276 0-12.658-3.704-16.116-6.627l-.024-.02c-1.611-1.372-2.849-2.398-4.318-3.147-1.381-.703-3.083-1.21-5.55-1.21-2.467 0-4.168.507-5.549 1.21-1.47.749-2.707 1.775-4.318 3.147l-.018.015-.166.137-.047.04c-3.461 2.873-7.774 6.455-15.909 6.455-8.276 0-12.658-3.704-16.115-6.627l-.015-.012-.009-.008c-1.612-1.372-2.849-2.398-4.319-3.147-1.381-.703-3.082-1.21-5.549-1.21-2.467 0-4.168.507-5.55 1.21-1.469.749-2.706 1.775-4.318 3.147l-.017.015-.166.137-.047.04c-3.461 2.873-7.775 6.455-15.909 6.455-8.276 0-12.658-3.704-16.116-6.627l-.014-.012-.01-.008c-1.611-1.372-2.849-2.398-4.318-3.147-1.381-.703-3.083-1.21-5.55-1.21-2.466 0-4.168.507-5.549 1.21-1.47.749-2.707 1.775-4.318 3.147l-.01.008-.056.047-.044.038c-3.433 2.902-7.753 6.554-15.968 6.554-8.276 0-12.658-3.704-16.116-6.627l-.014-.012-.01-.008c-1.611-1.372-2.848-2.398-4.318-3.147-1.381-.703-3.082-1.21-5.549-1.21-2.467 0-4.168.507-5.55 1.21-1.469.749-2.707 1.775-4.318 3.147l-.01.008-.056.048-.044.037c-3.433 2.902-7.753 6.554-15.968 6.554-8.276 0-12.658-3.704-16.115-6.627l-.014-.012-.01-.008c-1.612-1.372-2.849-2.398-4.318-3.147-1.382-.703-3.083-1.21-5.55-1.21-2.467 0-4.168.507-5.55 1.21-1.469.749-2.706 1.775-4.318 3.147l-.017.015-.166.137-.047.04c-3.461 2.873-7.774 6.455-15.909 6.455-8.276 0-12.658-3.704-16.116-6.627l-.014-.012-.01-.008c-1.611-1.372-2.848-2.398-4.318-3.147-1.381-.703-3.083-1.21-5.55-1.21-2.466 0-4.168.507-5.55 1.21-1.469.749-2.706 1.775-4.317 3.147l-.017.015-.166.137-.048.04c-3.46 2.873-7.774 6.455-15.909 6.455-8.276 0-12.657-3.704-16.115-6.627l-.024-.02c-1.612-1.372-2.849-2.398-4.318-3.147-1.382-.703-3.083-1.21-5.55-1.21-2.502 0-4.206.509-5.579 1.205-1.469.745-2.683 1.752-4.32 3.11z" fill="#EE0F50"/><path d="M92.54 15.191H15.322l.207 131.662H.418V1.943h92.121V15.19zM173.123.907c18.355 0 32.777 4.83 43.266 14.492 10.489 9.66 15.733 22.978 15.733 39.953 0 16.423-4.899 29.396-14.698 38.919-9.799 9.385-23.255 14.077-40.368 14.077-8.418 0-16.423-1.173-24.013-3.519-7.591-2.485-15.182-6.21-22.772-11.18v53.204h-15.112V57.629c0-17.94 5.037-31.88 15.112-41.816C140.484 5.876 154.768.906 173.123.906zm1.656 94.813c13.111 0 23.393-3.52 30.845-10.558 7.453-7.176 11.179-17.044 11.179-29.603 0-12.697-3.864-22.702-11.593-30.017-7.728-7.314-18.286-10.972-31.673-10.972-13.663 0-24.29 3.796-31.88 11.386-7.591 7.453-11.386 18.01-11.386 31.673v21.323c6.072 5.52 12.835 9.73 20.287 12.628 7.591 2.76 15.664 4.14 24.221 4.14zm119.054-80.529v118.413h29.396v13.249h-73.904v-13.249h29.396V15.191h-29.396V1.943h73.904V15.19h-29.396zM534.449 1.943v144.91H356.83V1.943h15.112v131.661h66.245V1.943h15.112v131.661h66.038V1.943h15.112zM641.63.7c18.77 0 33.537 5.52 44.301 16.562 10.903 10.902 16.355 26.704 16.355 47.406v82.185h-15.112v-42.645h-91.087v42.645h-14.905V64.668c0-20.702 5.383-36.504 16.147-47.406C608.232 6.22 622.999.7 641.63.7zm45.544 90.259v-27.74c0-16.147-4.003-28.292-12.007-36.435-8.005-8.28-19.184-12.42-33.537-12.42-14.353 0-25.531 4.14-33.536 12.42-8.005 8.143-12.007 20.288-12.007 36.435v27.74h91.087z" fill="#fff"/></svg>