<svg width="20" height="18" viewBox="0 0 20 18" fill="none" xmlns="http://www.w3.org/2000/svg">
<path d="M17.4114 0.176514H15.6467V1.94122C15.6467 2.29416 15.3526 2.52945 15.0585 2.52945C14.7644 2.52945 14.4702 2.29416 14.4702 1.94122V0.176514H5.05848V1.94122C5.05848 2.29416 4.76436 2.52945 4.47024 2.52945C4.17613 2.52945 3.88201 2.29416 3.88201 1.94122V0.176514H2.1173C1.23495 0.176514 0.587891 0.94122 0.587891 1.94122V4.05887H19.4114V1.94122C19.4114 0.94122 18.3526 0.176514 17.4114 0.176514ZM0.587891 5.29416V16.0589C0.587891 17.1177 1.23495 17.8236 2.17613 17.8236H17.4702C18.4114 17.8236 19.4702 17.0589 19.4702 16.0589V5.29416H0.587891ZM5.82318 15.1765H4.41142C4.17613 15.1765 3.94083 15 3.94083 14.7059V13.2353C3.94083 13 4.1173 12.7647 4.41142 12.7647H5.88201C6.1173 12.7647 6.3526 12.9412 6.3526 13.2353V14.7059C6.29377 15 6.1173 15.1765 5.82318 15.1765ZM5.82318 9.8824H4.41142C4.17613 9.8824 3.94083 9.70592 3.94083 9.41181V7.94122C3.94083 7.70592 4.1173 7.47063 4.41142 7.47063H5.88201C6.1173 7.47063 6.3526 7.6471 6.3526 7.94122V9.41181C6.29377 9.70592 6.1173 9.8824 5.82318 9.8824ZM10.5291 15.1765H9.05848C8.82318 15.1765 8.58789 15 8.58789 14.7059V13.2353C8.58789 13 8.76436 12.7647 9.05848 12.7647H10.5291C10.7644 12.7647 10.9997 12.9412 10.9997 13.2353V14.7059C10.9997 15 10.8232 15.1765 10.5291 15.1765ZM10.5291 9.8824H9.05848C8.82318 9.8824 8.58789 9.70592 8.58789 9.41181V7.94122C8.58789 7.70592 8.76436 7.47063 9.05848 7.47063H10.5291C10.7644 7.47063 10.9997 7.6471 10.9997 7.94122V9.41181C10.9997 9.70592 10.8232 9.8824 10.5291 9.8824ZM15.235 15.1765H13.7644C13.5291 15.1765 13.2938 15 13.2938 14.7059V13.2353C13.2938 13 13.4702 12.7647 13.7644 12.7647H15.235C15.4702 12.7647 15.7055 12.9412 15.7055 13.2353V14.7059C15.7055 15 15.5291 15.1765 15.235 15.1765ZM15.235 9.8824H13.7644C13.5291 9.8824 13.2938 9.70592 13.2938 9.41181V7.94122C13.2938 7.70592 13.4702 7.47063 13.7644 7.47063H15.235C15.4702 7.47063 15.7055 7.6471 15.7055 7.94122V9.41181C15.7055 9.70592 15.5291 9.8824 15.235 9.8824Z" fill="#A0A0A0"/>
</svg>
