<svg width="18" height="18" viewBox="0 0 18 18" fill="none" xmlns="http://www.w3.org/2000/svg">
<path d="M17.9982 14.5038C17.9731 13.8075 17.6831 13.1578 17.1816 12.6742C16.1996 11.7273 15.3769 11.1807 14.5925 10.954C13.5114 10.6416 12.5103 10.9257 11.6168 11.7984C11.6155 11.7997 11.6141 11.801 11.6128 11.8023L10.6612 12.7468C10.0702 12.4148 8.9213 11.6841 7.6647 10.4275L7.57217 10.3351C6.32384 9.08676 5.58855 7.93131 5.254 7.33787L6.19756 6.38721C6.1989 6.38587 6.2002 6.38454 6.20153 6.38316C7.07415 5.4897 7.35825 4.48852 7.04585 3.40753C6.81916 2.62309 6.27258 1.80036 5.32568 0.818413C4.84211 0.316908 4.19235 0.0268683 3.49615 0.00176669C2.80009 -0.0232998 2.13096 0.219068 1.61244 0.684537L1.59226 0.702678C1.58287 0.71108 1.57373 0.719764 1.56484 0.728659C0.532647 1.76078 -0.00840902 3.20577 9.88098e-05 4.90737C0.0145129 7.79792 1.60319 11.1036 4.24976 13.7502C4.25197 13.7524 4.25415 13.7545 4.25637 13.7567C4.7539 14.2535 5.31879 14.7452 5.9355 15.2181C6.24365 15.4543 6.685 15.396 6.92132 15.0879C7.15761 14.7797 7.09935 14.3384 6.79117 14.1021C6.22038 13.6645 5.69989 13.2115 5.24416 12.7557C5.24198 12.7536 5.2398 12.7514 5.23758 12.7492C2.85099 10.3599 1.41894 7.42636 1.40632 4.90031C1.39978 3.58982 1.79399 2.496 2.54647 1.73575L2.55185 1.73089C3.06295 1.27218 3.83674 1.30009 4.31346 1.79446C6.13389 3.68228 6.00206 4.57353 5.19768 5.39837L3.89429 6.71156C3.68989 6.91751 3.63298 7.22787 3.75103 7.49294C3.78411 7.56726 4.58455 9.33609 6.57809 11.3296L6.67062 11.422C8.66392 13.4154 10.4327 14.2158 10.5071 14.2489C10.7721 14.367 11.0825 14.31 11.2884 14.1056L12.6014 12.8025C13.4264 11.998 14.3176 11.866 16.2055 13.6865C16.6999 14.1632 16.7278 14.937 16.2692 15.448L16.2642 15.4535C15.5101 16.1998 14.428 16.5937 13.1317 16.5937C13.1211 16.5937 13.1103 16.5937 13.0997 16.5936C12.0636 16.5885 10.8638 16.3045 9.63012 15.7723C9.27356 15.6185 8.85981 15.7829 8.706 16.1395C8.55219 16.496 8.71658 16.9098 9.07314 17.0636C10.4991 17.6787 11.8515 17.9937 13.0926 17.9999C13.1058 17.9999 13.1189 18 13.1321 18C14.8166 17.9999 16.2472 17.4593 17.2713 16.4352C17.2802 16.4262 17.2889 16.4171 17.2973 16.4077L17.3155 16.3875C17.7809 15.869 18.0233 15.2001 17.9982 14.5038Z" fill="black"/>
</svg>
