<svg width="74" height="74" viewBox="0 0 74 74" fill="none" xmlns="http://www.w3.org/2000/svg">
<path d="M73.8068 49.1196V27.9455H59.6908V30.2981H56.4392L53.4725 28.8145C53.183 28.6703 52.8843 28.5428 52.5799 28.4337C52.6138 28.2757 52.6327 28.1138 52.6327 27.9455V25.5928C52.6327 24.2952 51.5776 23.2401 50.28 23.2401V16.1821H51.4564C53.4018 16.1821 54.9854 14.5985 54.9854 12.653H56.1617C58.1072 12.653 59.6908 11.0695 59.6908 9.12403V6.77135C59.6908 4.82591 58.1072 3.24233 56.1617 3.24233H54.7689C54.2818 1.87644 52.9877 0.889648 51.4564 0.889648H27.9296C26.3983 0.889648 25.1042 1.87644 24.6171 3.24233H3.22646C1.92892 3.24233 0.873779 4.29747 0.873779 5.59501V7.94769C0.873779 9.24522 1.92892 10.3004 3.22646 10.3004H24.6171C25.1042 11.6663 26.3983 12.653 27.9296 12.653H29.1059C32.4552 12.653 35.7688 13.7105 38.5166 15.622V23.2401C37.2191 23.2401 36.164 24.2952 36.164 25.5928V27.9455C36.164 28.0173 36.1795 28.0856 36.1852 28.1563C34.8078 28.637 33.8113 29.9346 33.8113 31.4745C33.8113 32.3814 34.1651 33.2011 34.7286 33.8272C34.164 34.4532 33.8113 35.2729 33.8113 36.1798C33.8113 37.0868 34.1651 37.9064 34.7286 38.5325C34.164 39.1586 33.8113 39.9782 33.8113 40.8852C33.8113 41.7921 34.1651 42.6118 34.7286 43.2379C34.164 43.864 33.8113 44.6836 33.8113 45.5906C33.8113 47.5067 35.3478 49.0621 37.2519 49.1104L34.8314 52.1357C34.1737 52.9593 33.8113 53.9932 33.8113 55.0472C33.8113 57.2236 35.3196 59.0432 37.3403 59.5515V60.883C37.3403 62.8284 38.9239 64.412 40.8693 64.412V65.5883C40.8693 66.2374 40.342 66.7647 39.693 66.7647H20.8716C18.9261 66.7647 17.3425 68.3482 17.3425 70.2937C17.3425 72.2391 18.9261 73.8227 20.8716 73.8227H63.2198V71.47H20.8716C20.2225 71.47 19.6952 70.9427 19.6952 70.2937C19.6952 69.6446 20.2225 69.1173 20.8716 69.1173H39.693C41.6384 69.1173 43.222 67.5338 43.222 65.5883V64.412C45.1674 64.412 46.751 62.8284 46.751 60.883V59.5515C48.7717 59.0432 50.28 57.2236 50.28 55.0472V49.0914C51.3869 49.0242 52.4822 48.7456 53.4725 48.2505L56.4392 46.7669H59.6908V49.1196H73.8068ZM62.0434 30.2981H64.3961V32.6508H66.7488V30.2981H71.4542V46.7669H66.7488V35.0035H64.3961V46.7669H62.0434V30.2981ZM50.2823 27.9455H47.9274V25.5928H50.28L50.2823 27.9455ZM43.1784 40.6819C43.1916 40.7514 43.222 40.8134 43.222 40.8852C43.222 41.5342 42.6947 42.0615 42.0457 42.0615H37.3403C36.6913 42.0615 36.164 41.5342 36.164 40.8852C36.164 40.2361 36.6913 39.7089 37.3403 39.7089H39.4339C40.0801 40.4251 41.0072 40.8852 42.0457 40.8852C42.4443 40.8852 42.8211 40.8042 43.1784 40.6819ZM36.164 36.1798C36.164 35.5308 36.6913 35.0035 37.3403 35.0035H38.5166V37.3562H37.3403C36.6913 37.3562 36.164 36.8289 36.164 36.1798ZM43.222 25.5928H45.5747V27.9455H43.222V25.5928ZM57.3381 6.77135V9.12403C57.3381 9.77308 56.8108 10.3004 56.1617 10.3004H54.9854V5.59501H56.1617C56.8108 5.59501 57.3381 6.12229 57.3381 6.77135ZM52.6327 4.41867V12.653C52.6327 13.3021 52.1054 13.8294 51.4564 13.8294H40.0778C38.191 12.4767 36.0531 11.4968 33.8113 10.9144V3.24233H51.4564C52.1054 3.24233 52.6327 3.76961 52.6327 4.41867ZM27.9296 3.24233H31.4586V5.59501H26.7533V4.41867C26.7533 3.76961 27.2805 3.24233 27.9296 3.24233ZM3.22646 5.59501H24.4006V7.94769H3.22646V5.59501ZM27.9296 10.3004C27.2805 10.3004 26.7533 9.77308 26.7533 9.12403V7.94769H31.4586V10.4641C30.6786 10.3653 29.894 10.3004 29.1059 10.3004H27.9296ZM40.8693 16.1821H47.9274V23.2401H40.8693V16.1821ZM38.5166 25.5928H40.8693V27.9455H38.5166V25.5928ZM37.3403 30.2981H38.7332C38.6011 30.6675 38.5166 31.0603 38.5166 31.4745V32.6508H37.3403C36.6913 32.6508 36.164 32.1235 36.164 31.4745C36.164 30.8254 36.6913 30.2981 37.3403 30.2981ZM36.164 45.5906C36.164 44.9415 36.6913 44.4142 37.3403 44.4142H42.0457C42.6947 44.4142 43.222 44.9415 43.222 45.5906C43.222 46.2396 42.6947 46.7669 42.0457 46.7669H37.3403C36.6913 46.7669 36.164 46.2396 36.164 45.5906ZM43.222 62.0593H40.8693C40.2203 62.0593 39.693 61.532 39.693 60.883V59.7066H44.3983V60.883C44.3983 61.532 43.8711 62.0593 43.222 62.0593ZM45.6206 57.354H38.4707C37.199 57.354 36.164 56.3189 36.164 55.0472C36.164 54.5251 36.3426 54.0122 36.67 53.6049L40.2588 49.1196H42.0457C43.9911 49.1196 45.5747 47.536 45.5747 45.5906C45.5747 44.6836 45.2209 43.864 44.6574 43.2379C45.222 42.6118 45.5747 41.7921 45.5747 40.8852C45.5747 40.2568 45.3897 39.6572 45.0819 39.1253C45.3863 38.6032 45.5747 38.0029 45.5747 37.3562V35.0035H47.4604C47.6109 35.1373 47.77 35.2597 47.9274 35.3837V55.0472C47.9274 56.3189 46.8923 57.354 45.6206 57.354ZM55.8843 44.4142L52.4208 46.146C51.7551 46.4797 51.0233 46.6761 50.2812 46.7388V36.7267C51.3352 37.1362 52.4656 37.3562 53.6069 37.3562H53.8091V35.0035H53.6069C51.8022 35.0035 50.0354 34.2717 48.7591 32.9954L48.4144 32.6508H43.222V37.3562C43.222 38.0052 42.6947 38.5325 42.0457 38.5325C41.3966 38.5325 40.8693 38.0052 40.8693 37.3562V31.4745C40.8693 30.8254 41.3966 30.2981 42.0457 30.2981H49.7907C50.6988 30.2981 51.608 30.5135 52.4196 30.919L55.8843 32.6508H59.6908V44.4142H55.8843Z" fill="white"/>
</svg>
