<svg width="54" height="54" viewBox="0 0 54 54" fill="none" xmlns="http://www.w3.org/2000/svg">
<path d="M47.2507 9.80859C47.8332 9.80859 48.3054 9.33641 48.3054 8.75391V3.16406C48.3054 1.4194 46.886 0 45.1414 0H3.16479C1.42013 0 0.000732422 1.4194 0.000732422 3.16406V50.8359C0.000732422 52.5806 1.42013 54 3.16479 54H45.1414C46.886 54 48.3054 52.5806 48.3054 50.8359V47.8828C48.3054 47.3003 47.8332 46.8281 47.2507 46.8281C46.6682 46.8281 46.196 47.3003 46.196 47.8828V50.8359C46.196 51.4175 45.7229 51.8906 45.1414 51.8906H3.16479C2.58324 51.8906 2.11011 51.4175 2.11011 50.8359V3.16406C2.11011 2.58251 2.58324 2.10938 3.16479 2.10938H45.1414C45.7229 2.10938 46.196 2.58251 46.196 3.16406V8.75391C46.196 9.33641 46.6682 9.80859 47.2507 9.80859Z" fill="#47AAE3"/>
<path d="M42.1885 5.0625H6.11694C5.53444 5.0625 5.06226 5.53468 5.06226 6.11719V28.1602C5.06226 28.7427 5.53444 29.2148 6.11694 29.2148C6.69945 29.2148 7.17163 28.7427 7.17163 28.1602V7.17188H41.1339V8.85938C41.1339 9.44188 41.6061 9.91406 42.1885 9.91406C42.771 9.91406 43.2432 9.44188 43.2432 8.85938V6.11719C43.2432 5.53468 42.771 5.0625 42.1885 5.0625Z" fill="#47AAE3"/>
<path d="M6.86224 31.3168C6.66607 31.1207 6.39502 31.0078 6.11658 31.0078C5.8392 31.0078 5.56709 31.1207 5.37091 31.3168C5.17474 31.513 5.06189 31.7851 5.06189 32.0625C5.06189 32.3399 5.17474 32.612 5.37091 32.8082C5.56709 33.0043 5.8392 33.1172 6.11658 33.1172C6.39502 33.1172 6.66607 33.0043 6.86224 32.8082C7.05947 32.612 7.17127 32.3399 7.17127 32.0625C7.17127 31.7851 7.05947 31.513 6.86224 31.3168Z" fill="#47AAE3"/>
<path d="M42.1885 44.5078C41.606 44.5078 41.1339 44.98 41.1339 45.5625V46.8281H7.17163V36.123C7.17163 35.5405 6.69945 35.0684 6.11694 35.0684C5.53444 35.0684 5.06226 35.5405 5.06226 36.123V47.8828C5.06226 48.4653 5.53444 48.9375 6.11694 48.9375H42.1885C42.771 48.9375 43.2432 48.4653 43.2432 47.8828V45.5625C43.2432 44.98 42.771 44.5078 42.1885 44.5078Z" fill="#47AAE3"/>
<path d="M32.6856 37.2659C32.2737 36.8539 31.606 36.8539 31.194 37.2658L29.1095 39.3504L27.8139 38.0546C26.9957 37.2366 25.6648 37.2366 24.8467 38.0546L24.0036 38.8977C23.5917 39.3096 23.5917 39.9774 24.0036 40.3893C24.4154 40.8012 25.0833 40.8012 25.4952 40.3893L26.3303 39.5542L27.626 40.85C28.035 41.259 28.5723 41.4635 29.1095 41.4635C29.6468 41.4635 30.1841 41.259 30.5931 40.85L32.6856 38.7575C33.0974 38.3457 33.0974 37.6779 32.6856 37.2659Z" fill="#47AAE3"/>
<path d="M53.5148 22.1254C53.9796 21.4003 54.1184 20.5072 53.8955 19.6753C53.6725 18.8433 53.1059 18.1393 52.3407 17.7438C52.0089 17.5723 51.8058 17.2205 51.8232 16.8474C51.8632 15.987 51.5369 15.1443 50.9279 14.5353C50.3189 13.9263 49.4764 13.5994 48.6157 13.6399C48.2409 13.6581 47.8908 13.4541 47.7193 13.1224C47.3238 12.3573 46.6198 11.7906 45.7879 11.5677C44.9556 11.3446 44.0628 11.4835 43.3378 11.9483C43.0234 12.15 42.6172 12.1499 42.3029 11.9483C41.5778 11.4834 40.6849 11.3447 39.8528 11.5677C39.0209 11.7906 38.3169 12.3573 37.9214 13.1224C37.7499 13.4542 37.3971 13.6568 37.025 13.6399C36.1643 13.5997 35.3219 13.9263 34.7129 14.5353C34.1038 15.1443 33.7775 15.987 33.8175 16.8473C33.8349 17.2205 33.6316 17.5723 33.2999 17.7438C32.5349 18.1393 31.9682 18.8432 31.7452 19.6753C31.6388 20.0722 31.6157 20.483 31.6702 20.8828H13.2659C12.6834 20.8828 12.2113 21.355 12.2113 21.9375C12.2113 22.52 12.6834 22.9922 13.2659 22.9922H32.2091C32.1864 23.0501 32.1601 23.1069 32.1258 23.1605C31.661 23.8856 31.5222 24.7787 31.7451 25.6106C31.7757 25.7249 31.8134 25.8364 31.8566 25.9453H13.2656C12.6831 25.9453 12.2109 26.4175 12.2109 27C12.2109 27.5825 12.6831 28.0547 13.2656 28.0547H33.7545C33.8004 28.1752 33.8234 28.3053 33.8172 28.4385C33.7772 29.2989 34.1035 30.1416 34.7126 30.7507C35.3216 31.3596 36.1639 31.6866 37.0247 31.646C37.3973 31.6277 37.7496 31.8317 37.9211 32.1635C38.0477 32.4086 38.2065 32.633 38.3905 32.8326V42.6827C38.3905 43.1087 38.6469 43.493 39.0403 43.6566C39.4336 43.8201 39.8869 43.7309 40.1891 43.4303L42.8202 40.8129L45.4513 43.4303C45.653 43.6309 45.9218 43.7373 46.1954 43.7373C46.3317 43.7373 46.4692 43.7109 46.6001 43.6564C46.9935 43.4929 47.2499 43.1086 47.2499 42.6825V32.8325C47.4339 32.633 47.5926 32.4085 47.7193 32.1634C47.8908 31.8316 48.2431 31.6289 48.6157 31.6459C49.477 31.6866 50.3188 31.3596 50.9278 30.7506C51.5369 30.1415 51.8632 29.2988 51.8232 28.4384C51.8058 28.0653 52.009 27.7135 52.3407 27.542C53.1058 27.1465 53.6725 26.4426 53.8955 25.6105C54.1184 24.7785 53.9796 23.8855 53.5148 23.1603C53.3132 22.8461 53.3132 22.4398 53.5148 22.1254ZM45.1405 40.1458L43.564 38.5775C43.1525 38.1682 42.4878 38.1682 42.0763 38.5775L40.4999 40.1458V33.8185C41.1309 33.8483 41.7633 33.6833 42.3028 33.3376C42.6172 33.1359 43.0234 33.136 43.3377 33.3376C43.8358 33.657 44.4132 33.8224 44.9957 33.8224C45.044 33.8224 45.0922 33.82 45.1405 33.8177V40.1458ZM51.8579 25.0647C51.7872 25.3285 51.6146 25.5429 51.372 25.6683C50.3106 26.2171 49.6605 27.3429 49.716 28.5366C49.7288 28.8094 49.6294 29.066 49.4362 29.2592C49.2431 29.4523 48.9865 29.5515 48.7137 29.539C47.5193 29.4838 46.3942 30.1335 45.8455 31.195C45.7201 31.4377 45.5056 31.6102 45.2418 31.6809C44.9781 31.7514 44.706 31.7094 44.4762 31.5619C43.9731 31.2394 43.3967 31.0782 42.8201 31.0782C42.2437 31.0782 41.6671 31.2395 41.1641 31.5619C40.9342 31.7093 40.6622 31.7514 40.3984 31.6809C40.1345 31.6102 39.9202 31.4376 39.7947 31.195C39.246 30.1336 38.121 29.4832 36.9265 29.539C36.6543 29.5516 36.397 29.4523 36.2039 29.2592C36.0107 29.066 35.9114 28.8094 35.9241 28.5364C35.9632 27.694 35.6497 26.8863 35.0893 26.2905C35.0729 26.2725 35.0561 26.2547 35.0384 26.2379C34.8158 26.0123 34.558 25.8182 34.2681 25.6683C34.0256 25.5429 33.853 25.3286 33.7824 25.0647C33.7117 24.8008 33.7539 24.5288 33.9013 24.299C34.5463 23.2931 34.5463 21.9931 33.9013 20.9871C33.754 20.7572 33.7117 20.4852 33.7824 20.2213C33.853 19.9575 34.0257 19.7431 34.2683 19.6177C35.3297 19.0689 35.9797 17.9432 35.9242 16.7495C35.9115 16.4766 36.0109 16.22 36.204 16.0268C36.3971 15.8336 36.6543 15.7344 36.9266 15.747C38.121 15.8024 39.2462 15.1526 39.7948 14.091C39.9202 13.8483 40.1346 13.6758 40.3985 13.6051C40.6623 13.5346 40.9343 13.5767 41.1641 13.7241C42.1702 14.3691 43.4703 14.3691 44.476 13.7241C44.706 13.5768 44.9779 13.5344 45.2418 13.6051C45.5056 13.6758 45.7199 13.8484 45.8455 14.091C46.3942 15.1525 47.5199 15.8027 48.7137 15.747C48.9866 15.7345 49.2431 15.8336 49.4362 16.0268C49.6295 16.22 49.7288 16.4766 49.716 16.7495C49.6606 17.9431 50.3105 19.0689 51.3721 19.6177C51.6147 19.7431 51.7872 19.9574 51.8579 20.2213C51.9286 20.4852 51.8864 20.7572 51.7389 20.987C51.094 21.993 51.094 23.293 51.7389 24.2989C51.8864 24.5288 51.9287 24.8008 51.8579 25.0647Z" fill="#47AAE3"/>
<path d="M47.836 19.774C47.4242 19.3621 46.7564 19.3621 46.3445 19.774L42.8439 23.2747L41.4503 21.8811C41.0385 21.4693 40.3706 21.4693 39.9587 21.8811C39.5468 22.293 39.5468 22.9608 39.9587 23.3728L42.098 25.5121C42.304 25.7181 42.5739 25.821 42.8438 25.821C43.1137 25.821 43.3837 25.7181 43.5895 25.5121L47.836 21.2656C48.2479 20.8538 48.2479 20.1859 47.836 19.774Z" fill="#47AAE3"/>
<path d="M12.8749 12.7543C12.6788 12.5582 12.4067 12.4453 12.1293 12.4453C11.8519 12.4453 11.5798 12.5582 11.3836 12.7543C11.1874 12.9505 11.0746 13.2226 11.0746 13.5C11.0746 13.7774 11.1874 14.0495 11.3836 14.2457C11.5798 14.4418 11.8519 14.5547 12.1293 14.5547C12.4067 14.5547 12.6788 14.4418 12.8749 14.2457C13.0711 14.0495 13.184 13.7774 13.184 13.5C13.184 13.2226 13.0711 12.9505 12.8749 12.7543Z" fill="#47AAE3"/>
<path d="M21.1989 12.4453H16.066C15.4835 12.4453 15.0114 12.9175 15.0114 13.5C15.0114 14.0825 15.4835 14.5547 16.066 14.5547H21.1989C21.7814 14.5547 22.2536 14.0825 22.2536 13.5C22.2536 12.9175 21.7814 12.4453 21.1989 12.4453Z" fill="#47AAE3"/>
<path d="M31.94 31.0078H19.8826C19.3001 31.0078 18.8279 31.48 18.8279 32.0625C18.8279 32.645 19.3001 33.1172 19.8826 33.1172H31.9399C32.5224 33.1172 32.9946 32.645 32.9946 32.0625C32.9946 31.48 32.5225 31.0078 31.94 31.0078Z" fill="#47AAE3"/>
</svg>
