<svg width="58" height="57" viewBox="0 0 58 57" fill="none" xmlns="http://www.w3.org/2000/svg">
<g clip-path="url(#clip0)">
<path d="M55.6743 40.5018L44.131 33.3977C44.0697 33.3596 44.0049 33.3294 43.9232 33.293C43.8025 33.2291 43.6827 33.1669 43.5815 33.1296C43.4767 33.0862 43.3711 33.0551 43.2477 33.0214C43.135 32.9885 43.0214 32.9574 42.9131 32.937C42.7888 32.9139 42.6654 32.9033 42.4959 32.89C42.4231 32.8802 42.3503 32.8722 42.2748 32.8722H36.947V24.8796H38.7215V26.655C38.7215 27.1458 39.1183 27.5426 39.6092 27.5426H42.2731V28.4303C42.2731 28.9212 42.6699 29.318 43.1607 29.318C43.6516 29.318 44.0484 28.9212 44.0484 28.4303V27.5426H45.8238V28.4303C45.8238 28.9212 46.2205 29.318 46.7114 29.318C47.2023 29.318 47.5991 28.9212 47.5991 28.4303V27.5426H49.3744V28.4303C49.3744 28.9212 49.7712 29.318 50.2621 29.318C50.753 29.318 51.1498 28.9212 51.1498 28.4303V27.5426H53.8146C54.3055 27.5426 54.7023 27.1458 54.7023 26.655V21.3289C54.7023 20.8381 54.3055 20.4413 53.8146 20.4413H39.6092C39.1183 20.4413 38.7215 20.8381 38.7215 21.3289V23.1043H36.947V4.46583H45.8238V4.53507C42.8172 4.96825 40.4977 7.55404 40.4977 10.6795C40.4977 14.1051 43.2859 16.8932 46.7114 16.8932C50.137 16.8932 52.9251 14.1051 52.9251 10.6795C52.9251 7.55404 50.6056 4.96825 47.5991 4.53507V4.46583H53.8181C54.309 4.46583 54.7058 4.06904 54.7058 3.57815V0.915138C54.7058 0.424255 54.309 0.0274658 53.8181 0.0274658H36.0594C34.1012 0.0274658 32.5087 1.61995 32.5087 3.57815V23.1087H31.6024V23.1069C31.6024 22.6161 31.2056 22.2193 30.7147 22.2193C30.2238 22.2193 29.827 22.6161 29.827 23.1069V23.1087H28.958V19.5563C28.958 19.0654 28.5612 18.6686 28.0703 18.6686C27.5794 18.6686 27.1826 19.0654 27.1826 19.5563V23.1087H26.295V23.1069C26.295 22.6161 25.8982 22.2193 25.4073 22.2193C24.9164 22.2193 24.5196 22.6161 24.5196 23.1069V23.1087H22.7443C22.2534 23.1087 21.8566 23.5055 21.8566 23.9964V26.6594C21.8566 28.1276 23.0514 29.3224 24.5187 29.3224H31.621C31.9343 29.3224 32.2299 29.2585 32.5087 29.1582V30.2083H22.7443C22.2534 30.2083 21.8566 30.6051 21.8566 31.096V32.8731H20.9858L6.9588 13.8947C6.29216 12.9928 5.2234 12.454 4.09961 12.454C3.33621 12.454 2.60655 12.6945 1.99228 13.149C0.42021 14.3137 0.085558 16.5408 1.24752 18.1164L16.3291 38.5223C16.3779 38.5906 16.4312 38.6492 16.4489 38.6572C16.5652 38.8019 16.6904 38.9359 16.8377 39.0691C16.9096 39.1312 16.9824 39.1924 17.0481 39.2404C17.1803 39.3407 17.3197 39.4303 17.5212 39.544C17.5816 39.5786 17.6446 39.6132 17.7094 39.6425C17.8763 39.7188 18.0512 39.7792 18.2393 39.8325C18.2624 39.8404 18.2828 39.8449 18.305 39.8511V42.6357H15.642C15.1511 42.6357 14.7543 43.0325 14.7543 43.5234V49.8081C11.7478 50.2413 9.42831 52.8271 9.42831 55.9508C9.42831 56.4417 9.8251 56.8385 10.316 56.8385H49.3736C49.8644 56.8385 50.2612 56.4417 50.2612 55.9508C50.2612 48.908 44.7621 43.1408 37.8338 42.681V39.9745H41.2691L51.9496 46.5477C52.5088 46.8939 53.1515 47.0759 53.8093 47.0759C55.0538 47.0759 56.1856 46.4438 56.8353 45.3866C57.8633 43.7196 57.3413 41.5288 55.6743 40.5018ZM40.4968 22.2175H52.9269V25.7682H51.1498V23.9928C51.1498 23.502 50.753 23.1052 50.2621 23.1052C49.7712 23.1052 49.3744 23.502 49.3744 23.9928V25.7682H47.5991V23.9928C47.5991 23.502 47.2023 23.1052 46.7114 23.1052C46.2205 23.1052 45.8238 23.502 45.8238 23.9928V25.7682H44.0484V23.9928C44.0484 23.502 43.6516 23.1052 43.1607 23.1052C42.6699 23.1052 42.2731 23.502 42.2731 23.9928V25.7682H40.4968V22.2175ZM51.1498 10.6795C51.1498 13.1268 49.1587 15.1179 46.7114 15.1179C44.2641 15.1179 42.2731 13.1268 42.2731 10.6795C42.2731 8.23133 44.2641 6.2394 46.7114 6.2394C49.1587 6.2394 51.1498 8.23133 51.1498 10.6795ZM36.0594 1.80281H52.9305V2.69048H36.0594C35.5685 2.69048 35.1717 3.08727 35.1717 3.57815V32.8731H34.284V3.57815C34.284 2.59905 35.0803 1.80281 36.0594 1.80281ZM32.5087 26.6594C32.5087 27.1494 32.111 27.5471 31.621 27.5471H24.5187C24.0296 27.5471 23.632 27.1494 23.632 26.6594V24.8841H32.5087V26.6594ZM23.632 31.9837H32.5087V32.8731H23.632V31.9837ZM18.3059 49.7371H16.5306V44.4111H18.3059V49.7371ZM48.4415 55.0631H11.2951C11.707 53.0401 13.5001 51.5124 15.6429 51.5124H19.1936C19.6845 51.5124 20.0813 51.1157 20.0813 50.6248V44.4111H36.947C43.0098 44.4111 47.9861 49.1148 48.4415 55.0631ZM36.0594 42.6357H20.0813V39.9745H36.0594V42.6357ZM55.3245 44.4563C54.8283 45.2632 53.6921 45.5384 52.8825 45.0369L41.9872 38.3305C41.847 38.2444 41.6863 38.1991 41.5221 38.1991H19.1936C19.0702 38.1991 18.9459 38.1841 18.8225 38.1565C18.8048 38.1503 18.7293 38.1264 18.7116 38.121C18.6202 38.0953 18.5305 38.0651 18.4497 38.0287L18.337 37.9657C18.2615 37.924 18.1905 37.8778 18.1124 37.8192C18.0751 37.7917 18.0405 37.7624 18.0148 37.7393C17.9482 37.6799 17.8878 37.6124 17.8186 37.5281C17.7937 37.4988 17.7662 37.4704 17.7627 37.4704C17.7618 37.4704 17.7618 37.473 17.7662 37.4792L2.67579 17.0619C2.09436 16.2736 2.26213 15.1587 3.04861 14.5764C3.81556 14.011 4.96776 14.1867 5.53143 14.951L19.8238 34.2889C19.9907 34.5153 20.2552 34.6485 20.5375 34.6485L33.3821 34.6493C33.3875 34.6493 33.3919 34.652 33.3972 34.652C33.4026 34.652 33.407 34.6493 33.4123 34.6493H36.0469C36.0514 34.6493 36.0558 34.652 36.0611 34.652C36.0665 34.652 36.0709 34.6493 36.0753 34.6493H42.2535C42.3006 34.6556 42.3476 34.6618 42.4222 34.6662C42.4755 34.6698 42.5287 34.6715 42.5909 34.684C42.6468 34.6937 42.6992 34.7106 42.7959 34.739C42.8314 34.7488 42.8687 34.7567 42.9308 34.7825C42.9868 34.8029 43.0356 34.8331 43.1128 34.8739C43.1288 34.8819 43.1891 34.9059 43.2051 34.9139L54.7431 42.0152C55.5766 42.5265 55.8376 43.6219 55.3245 44.4563Z" fill="white"/>
<path d="M46.7367 12.455H46.7278C46.2378 12.455 45.8455 12.8517 45.8455 13.3426C45.8455 13.8335 46.2467 14.2303 46.7376 14.2303C47.2276 14.2303 47.6252 13.8335 47.6252 13.3426C47.6252 12.8517 47.2267 12.455 46.7367 12.455Z" fill="white"/>
<path d="M45.8447 8.01658C45.8447 8.50746 46.246 8.90425 46.7368 8.90425C47.2268 8.90425 47.6245 8.50746 47.6245 8.01658C47.6245 7.5257 47.2268 7.12891 46.7368 7.12891H46.728C46.238 7.12891 45.8447 7.5257 45.8447 8.01658Z" fill="white"/>
<path d="M49.0437 12.8988C49.5337 12.8988 49.9314 12.502 49.9314 12.0111C49.9314 11.5202 49.5337 11.1234 49.0437 11.1234H49.034C48.544 11.1234 48.1516 11.5202 48.1516 12.0111C48.1516 12.502 48.5528 12.8988 49.0437 12.8988Z" fill="white"/>
<path d="M44.4314 8.46045H44.4217C43.9317 8.46045 43.5393 8.85724 43.5393 9.34812C43.5393 9.839 43.9405 10.2358 44.4314 10.2358C44.9214 10.2358 45.3191 9.839 45.3191 9.34812C45.3191 8.85724 44.9205 8.46045 44.4314 8.46045Z" fill="white"/>
<path d="M49.0437 10.2341C49.5337 10.2341 49.9314 9.8373 49.9314 9.34641C49.9314 8.85553 49.5337 8.45874 49.0437 8.45874H49.034C48.544 8.45874 48.1516 8.85553 48.1516 9.34641C48.1516 9.8373 48.5528 10.2341 49.0437 10.2341Z" fill="white"/>
<path d="M44.4314 11.1217H44.4217C43.9317 11.1217 43.5393 11.5185 43.5393 12.0094C43.5393 12.5003 43.9405 12.897 44.4314 12.897C44.9214 12.897 45.3191 12.5003 45.3191 12.0094C45.3191 11.5185 44.9205 11.1217 44.4314 11.1217Z" fill="white"/>
</g>
<defs>
<clipPath id="clip0">
<rect width="56.811" height="56.811" fill="white" transform="translate(0.551025 0.0274658)"/>
</clipPath>
</defs>
</svg>
