<svg width="58" height="58" viewBox="0 0 58 58" fill="none" xmlns="http://www.w3.org/2000/svg">
<g clip-path="url(#clip0)">
<path d="M11.6178 4.15689C11.6884 3.69551 11.4165 3.25031 10.9737 3.10259L2.34759 0.227228C1.89532 0.0760317 1.40076 0.280182 1.18691 0.706455L0.228454 2.62336C-0.0108001 3.09552 0.178015 3.67227 0.650173 3.91152C0.652689 3.91284 0.655205 3.91404 0.657841 3.91536L5.76544 6.46389L3.97792 16.2995C3.97014 16.3394 3.96475 16.3798 3.96163 16.4203L2.04472 52.8415C2.03047 53.113 2.13218 53.3778 2.32459 53.57L6.15841 57.4038C6.53268 57.7779 7.13938 57.7779 7.51366 57.4038L11.3475 53.57C11.5399 53.3778 11.6416 53.113 11.6273 52.8415L9.71043 16.5161L11.6178 4.15689ZM5.87854 16.5823L7.77915 6.09967C7.85583 5.68047 7.6464 5.26103 7.26542 5.07029L2.37731 2.62432L2.53545 2.30803L9.60596 4.66487L7.80694 16.3254C7.79664 16.3903 7.79317 16.4562 7.7964 16.5219L8.0456 21.2634H5.62742L5.87854 16.5823ZM5.52678 23.1803H8.1472L8.24783 25.0972H5.42615L5.52678 23.1803ZM5.31976 27.0141H8.34847L8.44911 28.931H5.22391L5.31976 27.0141ZM5.11848 30.8479H8.5507L8.65134 32.7648H5.02264L5.11848 30.8479ZM4.92008 34.6817H8.7539L8.85453 36.5986H4.82424L4.92008 34.6817ZM4.71977 38.5155H8.95613L9.05677 40.4324H4.61913L4.71977 38.5155ZM6.83699 55.3709L3.98272 52.5157L4.51849 42.3493H9.15549L9.69126 52.5157L6.83699 55.3709Z" fill="white"/>
<path d="M22.8499 4.68877C23.2241 4.31449 23.2241 3.70755 22.8499 3.33328C22.8179 3.30129 22.7836 3.27157 22.7473 3.24438L18.9135 0.369019L17.7633 1.90254L20.7135 4.11465L18.6192 6.20888C18.4395 6.38859 18.3384 6.63227 18.3384 6.8865V11.6788H17.38C16.8507 11.6788 16.4215 12.1079 16.4215 12.6372V45.2246C16.4215 45.7539 16.8507 46.1831 17.38 46.1831H18.3384V49.368L15.9423 50.3265C13.9863 51.1122 13.0377 53.3347 13.8235 55.2907C14.4041 56.7358 15.8044 57.6832 17.3617 57.6845H20.2553V55.7676H17.3617C16.3131 55.7687 15.4622 54.9195 15.4611 53.8708C15.4603 53.0931 15.9339 52.3935 16.6563 52.1054L19.6525 50.9073C20.0167 50.7619 20.2554 50.409 20.2553 50.0169V46.1831H21.2138C21.7431 46.1831 22.1722 45.7539 22.1722 45.2246V12.6372C22.1722 12.1079 21.7431 11.6788 21.2138 11.6788H20.2553V7.2833L22.8499 4.68877ZM20.2553 44.2662H18.3384V42.3493H20.2553V44.2662ZM20.2553 40.4324H18.3384V17.4295H20.2553V40.4324ZM20.2553 15.5126H18.3384V13.5957H20.2553V15.5126Z" fill="white"/>
<path d="M55.7181 23.1804H54.7597V14.631C57.6168 12.7898 58.4976 8.4844 56.6766 4.78286C55.7446 2.76771 54.0377 1.21465 51.9437 0.476524C50.4587 -0.0253461 48.8328 0.105004 47.4467 0.836903C44.3058 2.53528 43.2822 7.05343 45.1751 10.9122C46.1071 12.9273 47.814 14.4804 49.908 15.2185C50.5114 15.4138 51.1416 15.5141 51.776 15.5156C52.1344 15.5107 52.4917 15.4716 52.8427 15.3987V23.1804H51.8843C51.355 23.1804 50.9258 23.6095 50.9258 24.1388V56.7262C50.9258 57.2555 51.355 57.6847 51.8843 57.6847H55.7181C56.2474 57.6847 56.6766 57.2555 56.6766 56.7262V24.1388C56.6766 23.6095 56.2474 23.1804 55.7181 23.1804ZM50.4888 13.3869C48.8915 12.8091 47.5952 11.6109 46.8936 10.0639C45.4512 7.12244 46.1106 3.73814 48.362 2.52282C48.8873 2.23876 49.4756 2.0914 50.0728 2.09439C50.5112 2.09655 50.9464 2.16736 51.3629 2.30429C52.9598 2.88212 54.2561 4.07983 54.9581 5.62629C56.4005 8.56779 55.7411 11.9521 53.4897 13.1674C52.5638 13.656 51.4759 13.7355 50.4888 13.3869ZM54.7597 55.7678H52.8427V28.9311H54.7597V55.7678ZM54.7597 27.0142H52.8427V25.0973H54.7597V27.0142Z" fill="white"/>
<path d="M47.9785 50.9902C47.5647 48.5229 45.6032 46.6061 43.127 46.2493L38.4536 17.2772C38.4148 17.0318 38.2817 16.8114 38.0827 16.6628L37.1875 15.9919L38.0827 15.321C38.3427 15.127 38.487 14.8147 38.4661 14.4909L37.5076 0.114136L35.5907 0.240652L36.5147 14.0989L35.5907 14.7938L34.6648 14.0989L35.5907 0.240652L33.6738 0.114136L32.7154 14.4909C32.6945 14.8147 32.8388 15.127 33.0987 15.321L33.9939 15.9919L33.0987 16.6628C32.8997 16.8114 32.7666 17.0319 32.7278 17.2772L28.0544 46.2493C24.9108 46.7022 22.7296 49.6178 23.1826 52.7613C23.6356 55.9048 26.5511 58.0861 29.6945 57.6331C32.1707 57.2763 34.1322 55.3595 34.546 52.8922H36.6354C37.1607 56.0246 40.1257 58.1379 43.2581 57.6126C46.3904 57.0872 48.5037 54.1224 47.9785 50.9902ZM28.8815 55.7677C26.7642 55.7677 25.0477 54.0512 25.0477 51.9339C25.0477 49.8165 26.7642 48.1001 28.8815 48.1001C30.9989 48.1001 32.7154 49.8165 32.7154 51.9339C32.7154 54.0512 30.9989 55.7677 28.8815 55.7677ZM36.6354 50.9754H34.546C34.1448 48.6209 32.3322 46.758 29.9895 46.2924L34.5585 17.9644L35.5907 17.1899L36.623 17.9644L41.1919 46.2924C38.8492 46.758 37.0367 48.6209 36.6354 50.9754ZM42.2999 55.7677C40.1825 55.7677 38.4661 54.0512 38.4661 51.9339C38.4661 49.8165 40.1825 48.1001 42.2999 48.1001C44.4172 48.1001 46.1337 49.8165 46.1337 51.9339C46.1337 54.0512 44.4172 55.7677 42.2999 55.7677Z" fill="white"/>
</g>
<defs>
<clipPath id="clip0">
<rect width="57.5787" height="57.5787" fill="white" transform="translate(0.0864258 0.114136)"/>
</clipPath>
</defs>
</svg>
