<svg width="55" height="55" fill="none" xmlns="http://www.w3.org/2000/svg"><path d="M47.14 3.953a1.302 1.302 0 100 2.604 1.302 1.302 0 000-2.604zm-4.448 0a1.302 1.302 0 100 2.604 1.302 1.302 0 000-2.604zm-4.449 2.604a1.302 1.302 0 100-2.604 1.302 1.302 0 000 2.604z" fill="#47AAE3"/><path d="M52.024 0H2.976A2.98 2.98 0 000 2.976v42.32a2.979 2.979 0 002.976 2.976h.008L.236 51.02a.806.806 0 001.14 1.14l3.228-3.229 1.464 1.465-3.228 3.229a.806.806 0 001.14 1.139l3.23-3.23a.803.803 0 001.11-.025l2.173-2.174a12.662 12.662 0 006.263 1.65 12.68 12.68 0 007.852-2.713h27.416A2.979 2.979 0 0055 45.297V18.672a.806.806 0 10-1.611 0v26.625c0 .752-.612 1.364-1.365 1.364h-25.71a12.695 12.695 0 003.089-6.853h18.064c.445 0 .805-.36.805-.806v-4.991a.806.806 0 00-.805-.806H28.46a12.721 12.721 0 00-.995-1.861h14.793a.805.805 0 00.805-.806V13.176a.806.806 0 00-.805-.805H12.742a.806.806 0 00-.805.805v2.409a.806.806 0 101.611 0v-1.603h27.904V28.61l-9.959-9.839a.806.806 0 00-1.136.004l-5.14 5.142-2.859-2.859a.806.806 0 00-1.135-.004l-4.515 4.448a12.766 12.766 0 00-3.16.408v-6.566a.806.806 0 10-1.611 0v7.101a12.766 12.766 0 00-6.659 6.263.806.806 0 001.451.7c1.846-3.824 5.782-6.296 10.028-6.296 6.137 0 11.13 4.994 11.13 11.131 0 6.137-4.993 11.13-11.13 11.13-6.137 0-11.13-4.992-11.13-11.13 0-.496.033-.998.099-1.492a.806.806 0 00-1.597-.213 12.931 12.931 0 00-.114 1.705c0 2.275.6 4.413 1.65 6.264L3.51 46.66h-.534a1.366 1.366 0 01-1.365-1.364V10.509H53.39v4.403a.806.806 0 101.611 0V2.976A2.98 2.98 0 0052.024 0zm-8.743 34.816h3.38v3.38h-3.38v-3.38zm-1.612 0v3.381h-12.17a12.708 12.708 0 00-.468-3.38h12.638zM30.93 20.48l9.366 9.252h-9.264l-4.677-4.676 4.575-4.576zm-12.097 5.19l2.951-2.907 6.969 6.97H26.23a12.736 12.736 0 00-7.398-4.062zM6.567 45.884a12.848 12.848 0 002.55 2.55L7.75 49.8 5.2 47.25l1.367-1.367zM1.61 8.898V2.976c0-.753.613-1.365 1.365-1.365h49.048c.753 0 1.365.612 1.365 1.365v5.922H1.61z" fill="#47AAE3"/><path d="M16.757 47.513c5.111 0 9.27-4.159 9.27-9.27 0-5.112-4.159-9.27-9.27-9.27s-9.27 4.158-9.27 9.27c0 5.111 4.159 9.27 9.27 9.27zm0-16.928c4.223 0 7.659 3.435 7.659 7.658 0 4.223-3.436 7.658-7.659 7.658S9.1 42.466 9.1 38.243c0-4.223 3.435-7.659 7.658-7.659z" fill="#47AAE3"/></svg>