<svg width="55" height="55" fill="none" xmlns="http://www.w3.org/2000/svg"><path d="M35.981 14.803H9.643a.81.81 0 100 1.618H35.98a.809.809 0 100-1.618zM9.643 10.809h13.169a.809.809 0 100-1.618H9.642a.81.81 0 100 1.618zm26.338 8.967H9.643a.81.81 0 100 1.618H35.98a.809.809 0 100-1.618z" fill="#47AAE3"/><path d="M15.643 49.378h-8.43a2.512 2.512 0 01-2.509-2.509V4.127a2.512 2.512 0 012.51-2.509h24.283c.078 0 .155.007.232.018v5.046a4.132 4.132 0 004.127 4.127h5.046c.01.076.017.154.017.232v13.778a.81.81 0 001.619 0V11.041c0-.887-.346-1.722-.973-2.35L33.846.973A3.3 3.3 0 0031.496 0H7.214a4.132 4.132 0 00-4.127 4.127V46.87a4.132 4.132 0 004.127 4.127h8.43a.809.809 0 100-1.618zM39.775 9.191h-3.919a2.512 2.512 0 01-2.509-2.51V2.763l6.428 6.429z" fill="#47AAE3"/><path d="M51.665 39.61L44.81 28.038a1.773 1.773 0 00-2.431-.622l-1.668.988a3.168 3.168 0 00-1.397 3.693 2.48 2.48 0 01-1.745-.019c-1.316-.414-2.317-1.247-3.97-.83-2.807.715-2.722.68-2.976.767-1.643-.936-2.631-1.214-4.376-.54l-1.555.602a2.488 2.488 0 01-2.18-.182l-.424-.25a3.16 3.16 0 00-1.508-3.241l-1.668-.988a1.776 1.776 0 00-2.43.622L9.625 39.61c-.5.843-.222 1.93.622 2.43l1.667.989c.505.298 1.06.44 1.607.44.611 0 1.214-.176 1.729-.51l.347.205-.734 1.022a2.712 2.712 0 002.625 4.26 2.704 2.704 0 001.09 1.747 2.69 2.69 0 002.003.475 2.71 2.71 0 003.743 2.035c.183.476.502.907.947 1.226a2.715 2.715 0 003.662-.464l1.95 1.155a2.712 2.712 0 004.078-2.01l.005.002a2.717 2.717 0 004.089-2.134 2.719 2.719 0 003.361-2.347 2.718 2.718 0 003.325-1.143c.37-.623.474-1.353.294-2.056a2.702 2.702 0 00-.551-1.074l1.075-.628a3.157 3.157 0 002.816-.202l1.667-.987a1.773 1.773 0 00.622-2.431zM12.74 41.636l-1.667-.988a.157.157 0 01-.055-.214l6.856-11.571a.156.156 0 01.214-.055l1.667.988c.74.439.973 1.389.542 2.116l-5.44 9.183a1.547 1.547 0 01-2.117.541zm3.69 5.021a1.094 1.094 0 01-.251-1.527l1.078-1.502a1.098 1.098 0 011.528-.251c.49.352.603 1.037.251 1.527l-1.079 1.503a1.096 1.096 0 01-1.527.25zm3.093 2.221a1.096 1.096 0 01-.251-1.528l1.078-1.502 1.19-1.658a1.087 1.087 0 01.892-.456c.227 0 .448.07.636.206.238.17.395.423.442.711a1.09 1.09 0 01-.19.816l-2.27 3.16a1.094 1.094 0 01-1.527.251zm3.093 2.22a1.096 1.096 0 01-.251-1.526v-.001l2.269-3.16a1.096 1.096 0 011.779 1.277l-1.009 1.404-1.26 1.756a1.096 1.096 0 01-1.528.25zm3.6 1.516a1.096 1.096 0 01-.252-1.527l.755-1.051a1.096 1.096 0 011.527-.251c.49.352.603 1.037.251 1.528l-.754 1.05a1.096 1.096 0 01-1.528.251zm18.134-6.45c-.308.519-.98.691-1.5.383-.88-.52-6.557-3.884-7.162-4.242a.809.809 0 10-.825 1.392l5.414 3.207a1.095 1.095 0 11-1.116 1.885l-5.417-3.21a.809.809 0 10-.825 1.393l3.99 2.364a1.095 1.095 0 11-1.117 1.884l-2.141-1.268h-.001l-1.563-.927a.809.809 0 10-.825 1.392l1.563.926a1.095 1.095 0 11-1.116 1.885l-1.823-1.08a2.716 2.716 0 00-1.822-4.147 2.717 2.717 0 00-.959-3.155 2.702 2.702 0 00-2.002-.475 2.694 2.694 0 00-1.09-1.745 2.718 2.718 0 00-3.512.295 2.696 2.696 0 00-.772-.858 2.718 2.718 0 00-3-.11l-.37-.218 5.088-8.59.242.143a4.096 4.096 0 003.586.298l1.555-.601c.89-.344 1.381-.367 2.261.049a3.622 3.622 0 00-.918 2.412v3.588a1.73 1.73 0 001.727 1.729h.003c.955 0 1.853-.372 2.528-1.047.394-.394.685-.863.859-1.375l10.676 6.322a1.093 1.093 0 01.384 1.501zm5.868-5.516l-1.667.988a1.547 1.547 0 01-2.117-.541l-2.55-4.304a.81.81 0 00-1.392.825l2.55 4.303c.048.082.1.159.154.234l-.709.414a4.11 4.11 0 00-.413.28l-10.991-6.51a.81.81 0 00-1.222.696c-.008.049.084.88-.574 1.538-.37.37-.861.573-1.384.573H29.9a.11.11 0 01-.11-.11v-3.588c0-.937.645-1.728 1.517-1.949l2.687-.68c.976-.246 1.527.274 2.987.769a4.09 4.09 0 003.093-.05l.489.824a.809.809 0 101.392-.825l-.962-1.623a1.544 1.544 0 01.542-2.117l1.667-.987a.156.156 0 01.215.055l6.855 11.571c.044.075.02.17-.055.215z" fill="#47AAE3"/></svg>