<svg width="18" height="18" fill="none" xmlns="http://www.w3.org/2000/svg"><path d="M17.998 14.504a2.663 2.663 0 00-.816-1.83c-.982-.947-1.805-1.493-2.59-1.72-1.08-.312-2.082-.028-2.975.844l-.004.004-.952.945c-.59-.332-1.74-1.063-2.996-2.32l-.093-.092C6.324 9.087 5.59 7.931 5.254 7.338l.944-.95a.305.305 0 00.004-.005c.872-.893 1.156-1.894.844-2.975-.227-.785-.773-1.608-1.72-2.59a2.663 2.663 0 00-1.83-.816 2.663 2.663 0 00-1.884.683l-.02.018a.678.678 0 00-.027.026C.533 1.76-.008 3.206 0 4.907c.015 2.89 1.603 6.197 4.25 8.843l.006.007c.498.497 1.063.988 1.68 1.461a.703.703 0 00.855-1.116 15.86 15.86 0 01-1.547-1.346l-.006-.007C2.85 10.36 1.418 7.426 1.406 4.9c-.006-1.31.388-2.404 1.14-3.164l.006-.005a1.265 1.265 0 011.761.063c1.82 1.888 1.69 2.78.885 3.604L3.894 6.712a.703.703 0 00-.143.78c.033.075.834 1.844 2.827 3.838l.093.092c1.993 1.993 3.762 2.794 3.836 2.827a.703.703 0 00.781-.143l1.313-1.303c.825-.805 1.717-.937 3.604.883.495.477.523 1.251.064 1.762l-.005.005c-.754.747-1.836 1.14-3.132 1.14H13.1c-1.036-.005-2.236-.288-3.47-.82a.703.703 0 00-.557 1.29c1.426.616 2.778.93 4.02.937h.04c1.684 0 3.114-.54 4.138-1.565a.748.748 0 00.026-.027l.018-.02a2.663 2.663 0 00.683-1.884z" fill="#000"/></svg>